<svg width="31" height="30" viewBox="0 0 31 30" fill="none" xmlns="http://www.w3.org/2000/svg">
<path fill-rule="evenodd" clip-rule="evenodd" d="M7.67005 0C5.68092 0 3.77327 0.790176 2.36674 2.1967C0.96022 3.60322 0.170044 5.51088 0.170044 7.5V22.5C0.170044 24.4891 0.96022 26.3968 2.36674 27.8033C3.77327 29.2098 5.68092 30 7.67005 30H22.67C24.6592 30 26.5668 29.2098 27.9734 27.8033C29.3799 26.3968 30.1701 24.4891 30.1701 22.5V7.5C30.1701 5.51088 29.3799 3.60322 27.9734 2.1967C26.5668 0.790176 24.6592 0 22.67 0H7.67005ZM20.765 13.026C20.8998 12.8822 21.0049 12.7133 21.0743 12.5289C21.1438 12.3445 21.1762 12.1482 21.1698 11.9512C21.1634 11.7543 21.1183 11.5605 21.037 11.381C20.9557 11.2015 20.8398 11.0397 20.696 10.905C20.5523 10.7703 20.3833 10.6652 20.1989 10.5957C20.0145 10.5263 19.8182 10.4938 19.6213 10.5002C19.4243 10.5066 19.2305 10.5518 19.051 10.6331C18.8715 10.7144 18.7098 10.8302 18.575 10.974L13.9505 15.909L11.666 13.8795C11.3667 13.6307 10.9824 13.5079 10.5943 13.5372C10.2062 13.5665 9.84462 13.7455 9.58603 14.0364C9.32744 14.3273 9.19206 14.7074 9.20848 15.0963C9.22491 15.4852 9.39185 15.8524 9.67405 16.1205L13.049 19.1205C13.3411 19.3799 13.7228 19.5152 14.113 19.4975C14.5032 19.4799 14.8711 19.3107 15.1385 19.026L20.7635 13.026H20.765Z" fill="url(#paint0_linear_181_288)"/>
<defs>
<linearGradient id="paint0_linear_181_288" x1="1.40971" y1="21.1111" x2="21.1482" y2="21.028" gradientUnits="userSpaceOnUse">
<stop stop-color="#37C871"/>
<stop offset="1" stop-color="#5FE394"/>
</linearGradient>
</defs>
</svg>
