<svg width="11" height="11" viewBox="0 0 11 11" fill="" xmlns="http://www.w3.org/2000/svg">
<path d="M4.32143 0.6875H6.67857C6.89554 0.6875 7.07143 0.841402 7.07143 1.03125V1.71875H3.92857V1.03125C3.92857 0.841402 4.10446 0.6875 4.32143 0.6875ZM7.85714 1.71875V1.03125C7.85714 0.461706 7.32948 0 6.67857 0H4.32143C3.67052 0 3.14286 0.461706 3.14286 1.03125V1.71875H1.18301C1.18034 1.71873 1.17767 1.71873 1.17499 1.71875H0.392857C0.175888 1.71875 0 1.87265 0 2.0625C0 2.25235 0.175888 2.40625 0.392857 2.40625H0.815888L1.48591 9.73465C1.55125 10.4492 2.23306 11 3.05234 11H7.94766C8.76694 11 9.44875 10.4492 9.51409 9.73465L10.1841 2.40625H10.6071C10.8241 2.40625 11 2.25235 11 2.0625C11 1.87265 10.8241 1.71875 10.6071 1.71875H9.82501C9.82233 1.71873 9.81965 1.71873 9.81699 1.71875H7.85714ZM9.39589 2.40625L8.73088 9.67982C8.69821 10.0371 8.3573 10.3125 7.94766 10.3125H3.05234C2.6427 10.3125 2.30179 10.0371 2.26912 9.67983L1.60411 2.40625H9.39589ZM3.51265 3.09434C3.72924 3.08319 3.91515 3.22779 3.92789 3.41731L4.32075 9.26106C4.33349 9.45058 4.16824 9.61326 3.95164 9.62441C3.73505 9.63556 3.54913 9.49096 3.53639 9.30144L3.14354 3.45769C3.13079 3.26817 3.29605 3.10549 3.51265 3.09434ZM7.48735 3.09434C7.70395 3.10549 7.86921 3.26817 7.85646 3.45769L7.46361 9.30144C7.45087 9.49096 7.26495 9.63556 7.04836 9.62441C6.83176 9.61326 6.66651 9.45058 6.67925 9.26106L7.07211 3.41731C7.08485 3.22779 7.27076 3.08319 7.48735 3.09434ZM5.5 3.09375C5.71697 3.09375 5.89286 3.24765 5.89286 3.4375V9.28125C5.89286 9.4711 5.71697 9.625 5.5 9.625C5.28303 9.625 5.10714 9.4711 5.10714 9.28125V3.4375C5.10714 3.24765 5.28303 3.09375 5.5 3.09375Z" fill="red"/>
</svg>
