<svg width="19" height="19" viewBox="0 0 19 19" fill="none" xmlns="http://www.w3.org/2000/svg" >
<path d="M9.66992 10.25C10.0841 10.25 10.4199 9.91421 10.4199 9.5C10.4199 9.08579 10.0841 8.75 9.66992 8.75C9.25571 8.75 8.91992 9.08579 8.91992 9.5C8.91992 9.91421 9.25571 10.25 9.66992 10.25Z" stroke="black" stroke-width="2.5" stroke-linecap="round" stroke-linejoin="round" />
<path  d="M9.66992 5C10.0841 5 10.4199 4.66421 10.4199 4.25C10.4199 3.83579 10.0841 3.5 9.66992 3.5C9.25571 3.5 8.91992 3.83579 8.91992 4.25C8.91992 4.66421 9.25571 5 9.66992 5Z" stroke="black" stroke-width="2.5" stroke-linecap="round" stroke-linejoin="round"/>
<path d="M9.66992 15.5C10.0841 15.5 10.4199 15.1642 10.4199 14.75C10.4199 14.3358 10.0841 14 9.66992 14C9.25571 14 8.91992 14.3358 8.91992 14.75C8.91992 15.1642 9.25571 15.5 9.66992 15.5Z" stroke="black" stroke-width="2.5" stroke-linecap="round" stroke-linejoin="round"/>
</svg>
