<?xml version="1.0" standalone="no"?>
<!DOCTYPE svg PUBLIC "-//W3C//DTD SVG 20010904//EN"
 "http://www.w3.org/TR/2001/REC-SVG-20010904/DTD/svg10.dtd">
<svg version="1.0" xmlns="http://www.w3.org/2000/svg"
 width="591.000000pt" height="1280.000000pt" viewBox="0 0 591.000000 1280.000000"
 preserveAspectRatio="xMidYMid meet">

<g transform="translate(0.000000,1280.000000) scale(0.100000,-0.100000)"
fill="#000000" stroke="none">
<path d="M3430 10343 c-53 -20 -130 -95 -130 -126 0 -3 33 -31 73 -63 86 -70
88 -73 129 -147 28 -53 34 -58 57 -52 34 8 80 52 97 92 19 45 17 130 -5 178
-39 86 -150 145 -221 118z"/>
<path d="M2440 10312 c-103 -28 -162 -130 -144 -250 5 -39 16 -56 59 -99 40
-41 59 -53 82 -53 27 0 33 6 52 49 11 27 21 53 21 58 0 5 32 40 70 78 39 38
70 75 70 82 0 23 -42 78 -79 105 -40 28 -91 40 -131 30z"/>
<path d="M3198 10089 c-18 -10 -24 -34 -10 -42 4 -3 33 -8 65 -11 48 -6 57 -5
57 8 0 18 -56 56 -80 56 -8 0 -23 -5 -32 -11z"/>
<path d="M2697 10050 c-15 -12 -27 -30 -27 -41 0 -10 1 -19 3 -19 1 1 27 9 57
20 40 13 55 24 55 37 0 27 -54 29 -88 3z"/>
<path d="M3177 9950 c-54 -47 -73 -150 -41 -213 28 -53 105 -137 145 -158 90
-45 191 -11 225 76 19 50 12 90 -26 165 -72 141 -219 204 -303 130z m160 -102
c39 -23 63 -70 63 -119 0 -40 -56 -99 -94 -99 -14 0 -26 5 -26 10 0 6 7 10 16
10 10 0 14 6 11 15 -4 8 -1 17 5 21 7 4 8 3 4 -4 -4 -7 -4 -12 1 -12 22 1 36
22 40 62 5 40 2 49 -25 79 -25 28 -37 34 -71 34 -37 0 -40 1 -25 12 26 19 62
16 101 -9z m-90 -62 c-8 -20 -36 -21 -43 -1 -4 8 0 22 7 31 11 13 14 13 27 0
8 -8 12 -22 9 -30z"/>
<path d="M2685 9944 c-84 -43 -155 -161 -156 -258 -1 -85 33 -134 108 -156 77
-23 141 16 224 134 29 41 34 56 33 105 -1 119 -52 191 -134 191 -25 0 -58 -7
-75 -16z m96 -110 c11 -13 11 -15 -2 -14 -33 5 -40 1 -28 -19 7 -10 9 -26 6
-35 -10 -25 -40 -15 -47 14 l-6 24 -17 -24 c-9 -14 -17 -43 -17 -67 0 -36 5
-46 33 -67 19 -15 45 -26 58 -27 24 -1 24 -1 -2 -9 -40 -12 -74 -1 -106 32
-50 53 -31 145 40 188 39 24 70 25 88 4z"/>
<path d="M2051 9796 c-8 -9 -25 -12 -56 -8 -55 6 -80 -13 -96 -72 -6 -22 -19
-51 -30 -64 -28 -36 -24 -68 21 -160 22 -46 47 -109 56 -140 24 -81 92 -240
125 -287 37 -54 87 -103 123 -122 17 -8 38 -21 46 -28 14 -11 91 -30 210 -52
42 -8 45 -10 42 -36 -4 -36 14 -35 66 2 260 189 685 184 907 -10 29 -26 38
-30 45 -18 19 30 41 -59 42 -166 1 -93 -2 -108 -25 -147 -31 -54 -107 -125
-184 -171 -66 -40 -212 -97 -248 -97 -13 0 -26 -4 -30 -9 -7 -12 41 -178 60
-208 24 -37 74 -56 157 -61 102 -6 162 4 196 33 l27 24 -24 43 -24 44 26 75
c14 41 29 91 32 112 l7 38 44 -7 c68 -10 111 3 159 47 60 55 97 143 103 241
10 170 -51 286 -287 548 -100 111 -101 112 -121 105 -8 -2 -48 -16 -88 -29
-252 -87 -552 -62 -757 63 -38 24 -85 45 -103 48 -36 6 -89 59 -122 122 -16
33 -20 59 -20 150 0 99 -2 111 -19 121 -29 15 -55 12 -84 -10 l-25 -20 -26 44
c-39 67 -97 96 -125 62z m84 -40 c18 -26 10 -58 -13 -54 -21 4 -56 54 -48 67
12 19 45 12 61 -13z m-115 -13 c28 -36 23 -67 -12 -71 -18 -2 -31 4 -42 20
-19 27 -21 64 -3 71 25 11 36 6 57 -20z m277 -49 c8 -21 -13 -64 -32 -64 -20
0 -31 46 -15 65 16 19 39 19 47 -1z m-339 -98 c4 -34 -22 -45 -48 -21 -22 20
-27 61 -7 68 20 8 52 -19 55 -47z m215 34 c48 -38 43 -111 -9 -124 -15 -4 -41
-18 -57 -32 -34 -28 -44 -30 -69 -7 -23 21 -23 60 1 116 30 68 83 87 134 47z"/>
<path d="M3019 9643 c-1 -5 -1 -11 0 -15 2 -12 -57 -10 -64 2 -9 15 -23 12
-45 -10 -28 -28 -13 -52 54 -85 l54 -26 44 21 c23 12 51 29 61 38 20 17 22 53
5 70 -13 13 -107 17 -109 5z"/>
<path d="M3641 9634 c0 -11 3 -14 6 -6 3 7 2 16 -1 19 -3 4 -6 -2 -5 -13z"/>
<path d="M3215 9539 c-4 -6 -5 -12 -2 -15 2 -3 7 2 10 11 7 17 1 20 -8 4z"/>
<path d="M3155 9484 c-14 -10 -40 -14 -85 -13 -36 1 -86 -2 -113 -6 l-47 -8
22 -36 c20 -34 62 -81 72 -81 2 0 2 9 -1 20 -4 16 0 20 18 21 13 0 35 2 48 5
13 2 29 0 36 -6 10 -8 17 0 31 36 10 26 27 55 38 65 24 23 9 25 -19 3z"/>
<path d="M2480 8423 c1 -69 17 -188 36 -264 l17 -65 -27 -41 c-47 -70 -19 -96
118 -113 44 -5 68 -4 88 6 15 8 45 14 67 14 61 0 100 40 144 148 21 48 37 93
37 99 0 6 -17 14 -37 18 -21 4 -42 10 -48 14 -5 4 -32 16 -60 26 -27 10 -57
24 -66 31 -8 8 -21 14 -27 14 -7 0 -12 5 -12 10 0 6 -7 10 -15 10 -14 0 -169
113 -181 131 -3 5 -12 9 -20 9 -10 0 -14 -13 -14 -47z"/>
</g>
</svg>
