<svg width="14" height="14" viewBox="0 0 14 14" fill="none" xmlns="http://www.w3.org/2000/svg">
<path d="M12.3351 4.79505V3.00172C12.3351 2.26839 11.7351 1.66839 11.0017 1.66839H9.20839L7.94172 0.401719C7.42172 -0.118281 6.57505 -0.118281 6.05505 0.401719L4.79505 1.66839H3.00172C2.26839 1.66839 1.66839 2.26839 1.66839 3.00172V4.79505L0.401719 6.06172C-0.118281 6.58172 -0.118281 7.42839 0.401719 7.94839L1.66839 9.21505V11.0017C1.66839 11.7351 2.26839 12.3351 3.00172 12.3351H4.79505L6.06172 13.6017C6.58172 14.1217 7.42839 14.1217 7.94839 13.6017L9.21505 12.3351H11.0017C11.7351 12.3351 12.3351 11.7351 12.3351 11.0017V9.20839L13.6017 7.94172C14.1217 7.42172 14.1217 6.57505 13.6017 6.05505L12.3351 4.79505ZM7.00172 11.0017C4.79505 11.0017 3.00172 9.20839 3.00172 7.00172C3.00172 4.79505 4.79505 3.00172 7.00172 3.00172C9.20839 3.00172 11.0017 4.79505 11.0017 7.00172C11.0017 9.20839 9.20839 11.0017 7.00172 11.0017ZM7.00172 4.33505C5.52839 4.33505 4.33505 5.52839 4.33505 7.00172C4.33505 8.47505 5.52839 9.66839 7.00172 9.66839C8.47505 9.66839 9.66839 8.47505 9.66839 7.00172C9.66839 5.52839 8.47505 4.33505 7.00172 4.33505Z" fill="#5bbd83"/>
</svg>
