<?xml version="1.0" encoding="UTF-8"?>
<svg xmlns="http://www.w3.org/2000/svg" xmlns:xlink="http://www.w3.org/1999/xlink" version="1.1" id="Layer_1" x="0px" y="0px" viewBox="0 0 512 512" style="enable-background:new 0 0 512 512;" xml:space="preserve" width="512" height="512">
<style type="text/css">
	.st0{fill:#FFD22A;}
	.st1{fill:#5CEED9;}
	.st2{fill:#020305;}
	.st3{opacity:0.1;}
	.st4{fill:#F54B01;}
	.st5{fill:#FFFFFF;}
	.st6{fill:none;}
	.st7{fill:#2329FB;}
</style>
<g>
	<g>
		<path class="st0" d="M144.5,74.2c0,8.3-6.7,15-15,15c-8.3,0-15-6.7-15-15c0-8.3,6.8-15,15-15C137.8,59.2,144.5,65.9,144.5,74.2z"/>
	</g>
	<g>
		<path class="st1" d="M162.3,115.5c2.5,10,10,18.7,19.6,22.7l-10.2,13.2c-14.2-1.6-21.2-12-28.3-23.9L162.3,115.5z"/>
	</g>
	<g>
		<path class="st0" d="M344,71.7c0,8.3,6.7,15,15,15c8.3,0,15-6.7,15-15c0-8.3-6.8-15-15-15C350.7,56.7,344,63.4,344,71.7z"/>
	</g>
	<g>
		<path class="st1" d="M326.2,113c-2.5,10-10,18.7-19.6,22.7l10.2,13.2c4.4-0.5,8.6-2,12.3-4.5c7.1-4.6,11.7-12.2,16-19.4L326.2,113    z"/>
	</g>
	<g>
		<path class="st2" d="M129.5,90.5c-9,0-16.3-7.3-16.3-16.3c0-9,7.3-16.3,16.3-16.3c0.7,0,1.2,0.6,1.2,1.2c0,0.7-0.6,1.2-1.2,1.2    c-7.6,0-13.8,6.2-13.8,13.8c0,7.6,6.2,13.8,13.8,13.8c7.6,0,13.8-6.2,13.8-13.8c0-0.7,0.6-1.2,1.2-1.2c0.7,0,1.2,0.6,1.2,1.2    C145.7,83.2,138.4,90.5,129.5,90.5z"/>
	</g>
	<g>
		<path class="st2" d="M171.6,152.7c0,0-0.1,0-0.1,0c-14.5-1.7-21.8-12.1-29.2-24.5c-0.3-0.6-0.2-1.3,0.4-1.7l19-12    c0.6-0.4,1.3-0.2,1.7,0.4c0.4,0.6,0.2,1.4-0.4,1.7L145,128c7,11.5,13.5,20.4,26.1,22.1l9.8-12.7c0.4-0.5,1.2-0.6,1.7-0.2    c0.5,0.4,0.6,1.2,0.2,1.7l-10.2,13.2C172.4,152.5,172,152.7,171.6,152.7z"/>
	</g>
	<g>
		<path class="st2" d="M359,88c-9,0-16.3-7.3-16.3-16.3c0-9,7.3-16.3,16.3-16.3c0.7,0,1.2,0.6,1.2,1.2s-0.6,1.2-1.2,1.2    c-7.6,0-13.8,6.2-13.8,13.8c0,7.6,6.2,13.8,13.8,13.8c7.6,0,13.8-6.2,13.8-13.8c0-0.7,0.6-1.2,1.2-1.2s1.2,0.6,1.2,1.2    C375.3,80.7,368,88,359,88z"/>
	</g>
	<g>
		<path class="st2" d="M316.8,150.2c-0.4,0-0.8-0.2-1-0.5l-10.2-13.2c-0.4-0.5-0.3-1.3,0.2-1.7c0.5-0.4,1.3-0.3,1.7,0.2l9.8,12.7    c3.9-0.6,7.8-2,11.1-4.2c6.6-4.3,11.1-11.5,15-18l-17.9-11.4c-0.6-0.4-0.8-1.1-0.4-1.7c0.4-0.6,1.1-0.8,1.7-0.4l19,12    c0.6,0.4,0.8,1.1,0.4,1.7c-4.2,7-8.9,14.9-16.4,19.8c-3.8,2.5-8.3,4.1-12.8,4.7C316.9,150.2,316.9,150.2,316.8,150.2z"/>
	</g>
	<g>
		<path class="st1" d="M147.4,340.6c-1.8,15.7-3.7,31.5-5.5,47.2c-0.7,6-1,13.2,3.8,17c4,3.1,10,2.3,14.1-0.7    c4.1-3,6.5-7.7,8.4-12.4c1.9-4.7,3.4-9.6,6.2-13.8c3.5-5.3,9.2-9.7,9.8-16.1c0.4-4-1.3-8-3.5-11.4c-4.1-6.6-10.3-12.5-18-13.9    c-7.7-1.4-16.7,3.1-18.2,10.8"/>
	</g>
	<g class="st3">
		<path d="M184.2,361.7c-0.7,6.3-6.3,10.8-9.8,16.1c-2.8,4.2-4.3,9.1-6.2,13.8c-1.9,4.7-4.3,9.4-8.4,12.4c-5.4,4-13.5,4-16.9-2.8    c2.1-5.6,6.2-10.5,11.5-13.4c2.7-1.5,6-2.8,7-5.7c1.3-3.8-2.2-7.4-4-10.9c-3-5.9-1.8-13.1,0.6-19.3c2-5.2,4.9-10.1,8.3-14.5    c6,2.3,10.8,7.3,14.3,12.8C182.8,353.8,184.6,357.7,184.2,361.7z"/>
	</g>
	<g>
		<path class="st1" d="M318.5,340.6c6,51.1,8.5,58.8,1.7,64.2c-4,3.1-10,2.3-14.1-0.7c-8.3-6.2-9-17.9-14.5-26.3    c-3.5-5.3-9.2-9.7-9.8-16.1c-0.4-4,1.3-8,3.5-11.4c13.5-21.6,33.9-14.8,36.2-3.1"/>
	</g>
	<g class="st3">
		<path d="M315.9,406.7c-5-13.4,3.2-20.8-1.2-27.9c-5.3-8.6-24.2-2.3-18-30c0.8-3.5,1.6-7.2,1.9-10.8c8.1-3.5,15.9-1.1,20.1,3.7    C324.5,391.4,329,404.5,315.9,406.7z"/>
	</g>
	<g>
		<path class="st2" d="M159.8,405.3c-0.4,0-0.8-0.2-1-0.5c-0.4-0.6-0.3-1.3,0.3-1.7c4-3,6.4-7.9,7.9-11.9c0.4-1.1,0.8-2.1,1.2-3.2    c1.4-3.7,2.8-7.5,5.1-10.9c0.4-0.6,1.2-0.7,1.7-0.4c0.6,0.4,0.7,1.2,0.4,1.7c-2.1,3.1-3.5,6.8-4.8,10.4c-0.4,1.1-0.8,2.2-1.2,3.2    c-1.7,4.3-4.2,9.6-8.8,13C160.3,405.3,160.1,405.3,159.8,405.3z"/>
	</g>
	<g>
		<path class="st2" d="M145.7,406c-0.3,0-0.5-0.1-0.8-0.3c-5.1-4.1-5-11.5-4.3-18.1c0.1-0.7,0.7-1.2,1.4-1.1    c0.7,0.1,1.2,0.7,1.1,1.4c-0.7,6-0.8,12.6,3.3,15.9c0.5,0.4,0.6,1.2,0.2,1.8C146.4,405.9,146.1,406,145.7,406z"/>
	</g>
	<g>
		<path class="st2" d="M306.1,405.3c-0.3,0-0.5-0.1-0.7-0.2c-5.4-4-7.7-10.2-10-16.1c-1.4-3.6-2.8-7.3-4.9-10.5    c-1-1.6-2.3-3.1-3.5-4.6c-3-3.6-6-7.3-6.5-12.1c-0.4-3.7,0.8-7.6,3.7-12.2c6.7-10.7,16.3-16.1,25.6-14.4    c6.6,1.2,11.8,5.9,12.9,11.6c0.1,0.7-0.3,1.3-1,1.5c-0.6,0.1-1.3-0.3-1.5-1c-1-4.8-5.3-8.7-10.9-9.7c-8.3-1.5-16.9,3.4-23,13.2    c-2.6,4.1-3.6,7.5-3.3,10.6c0.4,4,3.1,7.3,6,10.7c1.3,1.5,2.6,3.1,3.7,4.8c2.2,3.4,3.7,7.2,5.1,11c2.2,5.9,4.3,11.4,9.1,15    c0.6,0.4,0.7,1.2,0.3,1.7C306.9,405.2,306.5,405.3,306.1,405.3z"/>
	</g>
	<g>
		<path class="st2" d="M320.2,406c-0.4,0-0.7-0.2-1-0.5c-0.4-0.5-0.3-1.3,0.2-1.8c4.2-3.3,4-9.9,3.3-15.9c-0.1-0.7,0.4-1.3,1.1-1.4    c0.7-0.1,1.3,0.4,1.4,1.1c0.8,6.7,0.9,14-4.3,18.1C320.8,406,320.5,406,320.2,406z"/>
	</g>
	<g>
		<path class="st1" d="M255.4,104.1c0.1,12.6,0.4,17.7-0.8,22.3c-2.2,8.8-9.1,11.9-13.8,10.2c-3.5-1.3-3.1-4-3.4-7.4    C235.5,101.6,255.3,89.7,255.4,104.1z"/>
	</g>
	<g>
		<path class="st2" d="M243.5,138.4c-1,0-2.1-0.2-3-0.5c-3.8-1.4-4-4.4-4.1-7.2c0-0.4,0-0.8-0.1-1.2c-0.5-7.2,0.6-14.6,3.3-21.2    c3-7.4,7.1-9.9,9.2-10.8c1.8-0.7,3.6-0.7,4.9-0.1c2.9,1.4,2.9,5.4,3,6.9c0,0.7-0.5,1.3-1.2,1.3c0,0,0,0,0,0    c-0.7,0-1.2-0.6-1.2-1.2c0-2.7-0.5-4.1-1.6-4.6c-0.5-0.3-1.6-0.3-2.9,0.2c-1.4,0.6-5.1,2.6-7.8,9.4c-2.5,6.3-3.6,13.3-3.1,20.1    c0,0.4,0.1,0.9,0.1,1.3c0.2,2.9,0.3,4.2,2.5,5c1.8,0.7,4,0.4,6-0.6c2.9-1.6,5.1-4.6,6.2-8.7c0.2-0.7,0.8-1.1,1.5-0.9    c0.7,0.2,1.1,0.8,0.9,1.5c-1.2,4.8-3.8,8.4-7.4,10.3C246.9,137.9,245.1,138.4,243.5,138.4z"/>
	</g>
	<g>
		<path class="st2" d="M203.6,79.3c-0.6,0-1.1-0.4-1.2-1c-2.3-10.9-12.8-18.2-23.8-16.6c-0.7,0.1-1.3-0.4-1.4-1.1    c-0.1-0.7,0.4-1.3,1.1-1.4c12.3-1.8,24,6.4,26.6,18.6c0.1,0.7-0.3,1.3-1,1.5C203.8,79.3,203.7,79.3,203.6,79.3z"/>
	</g>
	<g>
		<path class="st2" d="M215,62.9c-0.6,0-1.1-0.5-1.2-1.1c-0.7-5-3.5-9.4-7.7-12.2c-4.2-2.8-9.4-3.6-14.2-2.3    c-0.7,0.2-1.4-0.2-1.5-0.9c-0.2-0.7,0.2-1.3,0.9-1.5c5.5-1.5,11.5-0.5,16.3,2.7c4.8,3.2,8,8.3,8.7,13.9c0.1,0.7-0.4,1.3-1.1,1.4    C215.1,62.9,215.1,62.9,215,62.9z"/>
	</g>
	<g>
		<path class="st2" d="M223.2,48.2c-0.4,0-0.7-0.2-1-0.5c-0.4-0.5-0.3-1.3,0.2-1.8c1.6-1.3,1.7-3.9,0.6-5.6c-2.5-4.2-8-3.8-13.3-3    c-0.7,0.1-1.3-0.4-1.4-1.1c-0.1-0.7,0.4-1.3,1.1-1.4c5.9-0.8,12.5-1.3,15.8,4.2c1.8,2.9,1.2,6.9-1.2,8.9    C223.8,48.1,223.5,48.2,223.2,48.2z"/>
	</g>
	<g>
		<path class="st2" d="M90.9,135.5c-0.5,0-1-0.3-1.2-0.8c-5.1-12.8-3.3-27.8,4.5-39.1c0.4-0.6,1.2-0.7,1.7-0.3    c0.6,0.4,0.7,1.2,0.3,1.7C89,107.5,87.3,122,92,133.8c0.3,0.6-0.1,1.4-0.7,1.6C91.2,135.5,91,135.5,90.9,135.5z"/>
	</g>
	<g>
		<path class="st2" d="M73.8,121.4c-0.7,0-1.2-0.5-1.2-1.2c-0.3-8.3,2.9-16.4,8.6-22.4c0.5-0.5,1.3-0.5,1.8,0c0.5,0.5,0.5,1.3,0,1.8    c-5.2,5.4-8.1,13.1-7.9,20.6C75.1,120.8,74.5,121.3,73.8,121.4C73.8,121.4,73.8,121.4,73.8,121.4z"/>
	</g>
	<g>
		<path class="st2" d="M63.3,110.9C63.3,110.9,63.2,110.9,63.3,110.9c-0.7,0-1.3-0.6-1.2-1.3c0.2-4.9,2.6-9.6,6.3-12.7    c0.5-0.4,1.3-0.4,1.8,0.2c0.4,0.5,0.4,1.3-0.2,1.8c-3.2,2.7-5.2,6.7-5.4,10.9C64.5,110.3,63.9,110.9,63.3,110.9z"/>
	</g>
	<g>
		<path class="st2" d="M298.5,69.1c-0.3,0-0.5-0.1-0.7-0.2c-0.6-0.4-0.7-1.2-0.3-1.7c9.5-13.3,27.2-18.3,42.3-12.1    c0.6,0.3,0.9,1,0.7,1.6c-0.3,0.6-1,0.9-1.6,0.7c-14-5.8-30.5-1.1-39.3,11.2C299.3,68.9,298.9,69.1,298.5,69.1z"/>
	</g>
	<g>
		<path class="st2" d="M294.7,53c-0.3,0-0.7-0.1-0.9-0.4c-0.5-0.5-0.5-1.3,0-1.8c8.2-7.9,19.8-11.8,31.1-10.4    c0.7,0.1,1.2,0.7,1.1,1.4c-0.1,0.7-0.7,1.2-1.4,1.1c-10.6-1.3-21.4,2.4-29.1,9.8C295.3,52.9,295,53,294.7,53z"/>
	</g>
	<g>
		<path class="st2" d="M299.6,39.3c-0.4,0-0.8-0.2-1-0.5c-0.4-0.6-0.3-1.3,0.3-1.7c5.2-3.6,11.5-5.7,17.9-5.7l0,0    c0.7,0,1.2,0.6,1.2,1.2c0,0.7-0.6,1.2-1.2,1.2c-5.8,0-11.7,1.9-16.4,5.2C300.1,39.3,299.9,39.3,299.6,39.3z"/>
	</g>
	<g>
		<path class="st2" d="M391.1,147.7c-0.2,0-0.3,0-0.5-0.1c-0.6-0.2-1-1-0.7-1.6c5-12.8,11.8-30.4,3.1-44.6c-0.4-0.6-0.2-1.4,0.4-1.7    c0.6-0.4,1.4-0.2,1.7,0.4c9.3,15.2,2.3,33.5-2.9,46.8C392.1,147.4,391.6,147.7,391.1,147.7z"/>
	</g>
	<g>
		<path class="st2" d="M408.3,143.2c-0.2,0-0.4-0.1-0.6-0.2c-0.6-0.3-0.8-1.1-0.4-1.7c5.7-9.6,6.5-22,2.2-32.3    c-0.3-0.6,0-1.4,0.7-1.6c0.6-0.3,1.4,0,1.6,0.7c4.6,11,3.7,24.3-2.4,34.6C409.2,143,408.8,143.2,408.3,143.2z"/>
	</g>
	<g>
		<path class="st2" d="M422.9,129.5c-0.3,0-0.6-0.1-0.8-0.3c-0.5-0.4-0.6-1.2-0.1-1.8c2.9-3.4,3.3-8.6,1.2-12.5    c-0.3-0.6-0.1-1.4,0.5-1.7c0.6-0.3,1.4-0.1,1.7,0.5c2.7,4.8,2.1,11.1-1.4,15.3C423.6,129.3,423.3,129.5,422.9,129.5z"/>
	</g>
	<g>
		<path class="st4" d="M108.9,266.3c0.9,14.9,6.4,29,11.8,42.8c5.4,13.7,11,27.8,21,38.6c13.9,15.1,34.7,22.1,55.1,23.9    c24.7,2.3,49.4-2,73.8-6.4c48.2-8.6,68-17.9,85-63c38.1-101-5.9-167.5-87.2-174.3c-25.7-2.1-54.1,0.4-79.6,3.9    C156.2,136.4,106.3,222.2,108.9,266.3z"/>
	</g>
	<g class="st3">
		<path d="M355.7,302.4c-17,44.9-36.6,54.4-85,63c-24.4,4.3-49.1,8.6-73.8,6.4c-20.4-1.9-41.3-8.9-55.1-24    c-10-10.8-15.6-24.9-21-38.6c-0.4-1.1-0.9-2.2-1.3-3.3c8.9-12.9,22.7-22.5,38-26c12.7-2.9,25.9-2,38.6-4.7    c33.7-7.1,54.1-38.2,46.7-67.9c-3.3-13.3-12.2-26.2-9.1-39.6c2.8-12.4,15.1-20.3,27.2-24.3c11.5-3.8,23.8-5.2,34.6-10.5    C355.9,149.8,390.5,210,355.7,302.4z"/>
	</g>
	<g>
		<path class="st5" d="M129.6,263.7c0.8,12.5,5.4,24.4,10,36.1c4.5,11.6,9.3,23.4,17.7,32.5c11.7,12.7,29.2,18.6,46.4,20.2    c20.8,1.9,41.6-1.7,62.1-5.4c18.2-3.3,37.5-7,51.3-19.5c23.4-21.2,54.3-109.2,7.2-155.4c-15.8-15.5-38.2-23-60.3-24.8    c-21.7-1.8-45.6,0.3-67,3.2C169.3,154.4,127.3,226.6,129.6,263.7z"/>
	</g>
	<g class="st3">
		<path d="M317,327.6c-13.7,12.4-33,16.2-51.3,19.5c-20.5,3.7-41.3,7.3-62.1,5.4c-17.2-1.6-34.7-7.5-46.4-20.2    c-0.3-0.3-0.6-0.7-0.9-1c6.7-13.2,18.9-23.6,33-28c28.7-9,63.1,5.2,88.5-10.9c29.5-18.8,24.5-63.8-8.6-75.5    c-19.4-6.9-49.4,1.1-62.1-18.7c-9.5-14.7-0.4-34.7,8.3-49.6c10.3-1,21.4-1.7,31.6-1.7c5.7,0,11.4,0.2,16.9,0.7    c22.1,1.9,44.4,9.3,60.2,24.8C371.6,218.6,339.9,306.9,317,327.6z"/>
	</g>
	<g>
		<path class="st6" d="M277.8,292.3c-25.4,16.1-59.8,1.9-88.5,10.9c-14.1,4.5-26.3,14.8-33,28c-7.9-9-12.4-20.4-16.8-31.5    c-4.6-11.7-9.2-23.6-10-36.1c-2.2-37,39.7-109.3,67.3-113.1c6-0.8,12.2-1.6,18.5-2.2c-23.4,40.4-10.8,60.5,20.8,63.9    c11.1,1.2,22.6,0.7,33.1,4.4C302.3,228.5,307.2,273.5,277.8,292.3z"/>
	</g>
	<g>
		<path class="st1" d="M246,254.4c-11.7-26.7-9.6-59.2,5.7-84.1C266,196.2,261.6,229.3,246,254.4z"/>
	</g>
	<g class="st3">
		<path d="M246,254.5c-1.6-3.6-2.9-7.3-3.9-11.2c12.2-14.7,1.7-20.3,3.5-29.9c1.4-7.9,11.1-11.8,14.1-19.2    C262.5,214.6,257.1,236.5,246,254.5z"/>
	</g>
	<g>
		<path class="st1" d="M245.4,254.1c-2.1,23.2-16,45.1-36.3,56.7C209,287.1,224.8,265.7,245.4,254.1z"/>
	</g>
	<g>
		<path class="st2" d="M139,180.3c-0.2,0-0.5-0.1-0.7-0.2c-0.6-0.4-0.7-1.1-0.4-1.7c13.4-20.8,31.3-45,50.7-47.6    c32.7-4.5,58.1-5.7,79.9-3.9c20.9,1.7,50.4,8.3,72.4,29.8c0.5,0.5,0.5,1.3,0,1.8c-0.5,0.5-1.3,0.5-1.8,0    c-21.4-21-50.3-27.4-70.8-29.1c-21.6-1.8-46.8-0.6-79.3,3.8c-20.8,2.8-41.3,34.6-49,46.5C139.9,180.1,139.5,180.3,139,180.3z"/>
	</g>
	<g>
		<path class="st2" d="M270.7,366.6c-0.6,0-1.1-0.4-1.2-1c-0.1-0.7,0.3-1.3,1-1.4c19.4-3.5,43.6-7.8,60.3-22.8    c23.5-21.2,39.4-78.8,37.4-114.2c0-0.7,0.5-1.3,1.2-1.3c0.8-0.1,1.3,0.5,1.3,1.2c2,35.9-14.2,94.5-38.2,116.2    c-17.2,15.5-41.8,19.9-61.5,23.4C270.8,366.6,270.7,366.6,270.7,366.6z"/>
	</g>
	<g>
		<path class="st2" d="M196.9,373c0,0-0.1,0-0.1,0c-16.7-1.5-40-7-55.9-24.3c-0.5-0.5-0.4-1.3,0.1-1.8c0.5-0.5,1.3-0.4,1.8,0.1    c15.4,16.7,38.1,22,54.3,23.6c0.7,0.1,1.2,0.7,1.1,1.4C198.1,372.5,197.5,373,196.9,373z"/>
	</g>
	<g>
		<path class="st2" d="M120.8,310.4c-0.5,0-1-0.3-1.2-0.8c-5.4-13.8-11-28-11.9-43.2c0-0.7,0.5-1.3,1.2-1.3c0.7-0.1,1.3,0.5,1.3,1.2    c0.9,14.8,6.4,28.9,11.8,42.5c0.3,0.6-0.1,1.4-0.7,1.6C121.1,310.4,120.9,310.4,120.8,310.4z"/>
	</g>
	<g>
		<path class="st2" d="M317,328.8c-0.3,0-0.7-0.1-0.9-0.4c-0.5-0.5-0.4-1.3,0.1-1.8c19.7-17.8,33.1-66.2,31.4-95.9    c0-0.7,0.5-1.3,1.2-1.3c0.8-0.1,1.3,0.5,1.3,1.2c1.7,30.3-12,79.6-32.2,97.9C317.5,328.7,317.2,328.8,317,328.8z"/>
	</g>
	<g>
		<path class="st2" d="M215.4,354.2c-4,0-8-0.2-11.9-0.5c-0.7-0.1-1.2-0.7-1.1-1.4c0.1-0.7,0.7-1.2,1.4-1.1    c20.9,1.9,42.6-1.9,61.8-5.3c0.7-0.1,1.3,0.3,1.4,1c0.1,0.7-0.3,1.3-1,1.4C250.2,351.1,232.8,354.2,215.4,354.2z"/>
	</g>
	<g>
		<path class="st2" d="M139.5,301c-0.5,0-1-0.3-1.2-0.8c-4.6-11.6-9.3-23.6-10.1-36.4c-1.4-23.4,12.9-54.6,25.5-74.2    c0.4-0.6,1.1-0.7,1.7-0.4c0.6,0.4,0.7,1.1,0.4,1.7c-12.5,19.3-26.5,49.9-25.1,72.7c0.8,12.4,5.4,24.3,9.9,35.7    c0.3,0.6-0.1,1.4-0.7,1.6C139.8,301,139.7,301,139.5,301z"/>
	</g>
	<g>
		<path class="st2" d="M324.1,173.4c-0.3,0-0.6-0.1-0.9-0.4c-18-17.6-42.3-23-59.5-24.4c-18.2-1.5-39.4-0.5-66.7,3.2    c-0.7,0.1-1.3-0.4-1.4-1.1c-0.1-0.7,0.4-1.3,1.1-1.4c27.5-3.8,48.9-4.8,67.3-3.3c17.6,1.5,42.5,7,61,25.1c0.5,0.5,0.5,1.3,0,1.8    C324.8,173.3,324.5,173.4,324.1,173.4z"/>
	</g>
	<g>
		<path class="st2" d="M246,255.7c-0.2,0-0.5-0.1-0.7-0.2c-0.6-0.4-0.8-1.1-0.4-1.7c16.5-26.6,18.7-59.1,5.6-82.8    c-0.3-0.6-0.1-1.4,0.5-1.7c0.6-0.3,1.4-0.1,1.7,0.5c13.5,24.5,11.3,58-5.7,85.4C246.8,255.5,246.4,255.7,246,255.7z"/>
	</g>
	<g>
		<path class="st2" d="M209.1,312c-0.7,0-1.2-0.6-1.2-1.2c-0.1-22.4,14.4-45.1,36.9-57.8c0.6-0.3,1.4-0.1,1.7,0.5    c0.3,0.6,0.1,1.4-0.5,1.7c-21.7,12.2-35.7,34.1-35.6,55.6C210.4,311.5,209.8,312,209.1,312C209.1,312,209.1,312,209.1,312z"/>
	</g>
	<g>
		<path class="st4" d="M111.8,95.2c15.9-26.9,54.6-33.1,76.9-7.4c7.8,9,4.2,23.1-6.9,27.5c-8.9,3.5-18.2,7.4-19.7,8.1    c-11.1,5.7-21.7,16.3-33.6,19.7C99.9,151.6,102.8,110.5,111.8,95.2z"/>
	</g>
	<g>
		<path class="st4" d="M376.7,92.7c-15.9-26.9-54.6-33.1-76.9-7.4c-7.8,9-4.2,23.1,6.9,27.5c8.9,3.5,18.2,7.4,19.7,8.1    c11.1,5.7,21.7,16.3,33.6,19.7C388.6,149.1,385.7,108,376.7,92.7z"/>
	</g>
	<g class="st3">
		<path d="M181.8,115.4c-8.9,3.5-18.2,7.4-19.7,8.2c-10.4,5.3-20.3,14.9-31.4,19c-3-6.7-4-15.6,0.3-21.6c3.5-4.7,9.5-6.6,14.7-9.3    c5.2-2.6,10.4-7.5,9.6-13.3c-1.6-11-16.7-9.1-21-22.7c19.9-8.8,40.9-3.4,54.4,12.2C196.5,96.9,192.9,110.9,181.8,115.4z"/>
	</g>
	<g class="st3">
		<path d="M360,140.7c-11.9-3.5-22.5-14-33.6-19.7c-1.2-0.6-7.6-3.3-14.8-6.2c6.4,1,12.9,2.8,19.3,1.7c6.9-1.1,13.6-7,12.8-13.9    c-0.4-3.1-2.3-6.2-1.2-9.1c1.4-3.9,6.6-4.4,10.6-3.5c8.1,1.8,14.3,5.4,20.9-1.3C386.7,105.2,389.2,149.2,360,140.7z"/>
	</g>
	<g>
		<path class="st2" d="M111.8,96.4c-0.2,0-0.4-0.1-0.6-0.2c-0.6-0.4-0.8-1.1-0.4-1.7c8.1-13.7,22.5-22.7,38.3-24.2    c15.5-1.4,30.2,4.7,40.5,16.6c0.5,0.5,0.4,1.3-0.1,1.8c-0.5,0.5-1.3,0.4-1.8-0.1c-9.8-11.3-23.8-17.1-38.4-15.8    c-15.1,1.3-28.7,9.9-36.4,23C112.6,96.2,112.2,96.4,111.8,96.4z"/>
	</g>
	<g>
		<path class="st2" d="M128.5,144.5c-0.5,0-1-0.4-1.2-0.9c-0.2-0.7,0.2-1.4,0.8-1.5c7-2,13.7-6.7,20.2-11.3c4.3-3,8.7-6.1,13.2-8.4    c1.6-0.8,11.2-4.8,19.8-8.2c0.6-0.3,1.4,0.1,1.6,0.7s-0.1,1.4-0.7,1.6c-9.2,3.6-18.2,7.4-19.6,8.1c-4.3,2.2-8.5,5.1-12.9,8.2    c-6.7,4.6-13.5,9.5-20.9,11.6C128.7,144.5,128.6,144.5,128.5,144.5z"/>
	</g>
	<g>
		<path class="st2" d="M376.7,93.9c-0.4,0-0.8-0.2-1.1-0.6c-9.6-16.2-29.1-25.5-47.5-22.7c-0.7,0.1-1.3-0.4-1.4-1s0.4-1.3,1-1.4    c19.3-3,39.9,6.8,50,23.9c0.4,0.6,0.2,1.4-0.4,1.7C377.1,93.9,376.9,93.9,376.7,93.9z"/>
	</g>
	<g>
		<path class="st2" d="M360,142c-0.1,0-0.2,0-0.3,0c-7.4-2.2-14.3-7-20.9-11.6c-4.4-3.1-8.6-6-12.9-8.2c-1.4-0.7-10.4-4.5-19.6-8.1    c-5.7-2.2-9.9-7.1-11.3-13c-1.5-5.9,0-11.9,3.9-16.5c0.5-0.5,1.2-0.6,1.8-0.1c0.5,0.5,0.6,1.2,0.1,1.8c-3.4,4-4.7,9.2-3.4,14.3    c1.3,5.2,4.9,9.3,9.8,11.3c8.6,3.4,18.2,7.4,19.8,8.2c4.5,2.3,8.9,5.4,13.2,8.4c6.5,4.5,13.2,9.2,20.2,11.3c0.7,0.2,1,0.9,0.8,1.5    C361,141.6,360.5,142,360,142z"/>
	</g>
	<g>
		<path class="st2" d="M242.5,163.2C242.5,163.2,242.5,163.2,242.5,163.2c-0.8,0-1.3-0.6-1.2-1.3l0.5-8.4c0-0.7,0.5-1.2,1.3-1.2    c0.7,0,1.2,0.6,1.2,1.3l-0.5,8.4C243.7,162.7,243.2,163.2,242.5,163.2z"/>
	</g>
	<g>
		<path class="st2" d="M212.3,168.8c-0.5,0-0.9-0.3-1.1-0.8c-1.2-2.7-3.4-5-6.1-6.2c-0.6-0.3-0.9-1-0.6-1.6c0.3-0.6,1-0.9,1.6-0.6    c3.3,1.5,6,4.2,7.4,7.5c0.3,0.6,0,1.4-0.7,1.6C212.6,168.7,212.5,168.8,212.3,168.8z"/>
	</g>
	<g>
		<path class="st2" d="M187.4,187.5c-0.3,0-0.6-0.1-0.8-0.3c-2.1-1.8-4.8-2.9-7.6-3c-0.7,0-1.2-0.6-1.2-1.3c0-0.7,0.6-1.3,1.3-1.2    c3.4,0,6.7,1.4,9.2,3.6c0.5,0.5,0.6,1.2,0.1,1.8C188.1,187.4,187.8,187.5,187.4,187.5z"/>
	</g>
	<g>
		<path class="st2" d="M160.4,210.4c-0.7,0-1.2-0.5-1.2-1.2c0-0.7,0.5-1.3,1.2-1.3l8.9-0.5c0.7-0.1,1.3,0.5,1.3,1.2    s-0.5,1.3-1.2,1.3L160.4,210.4C160.4,210.4,160.4,210.4,160.4,210.4z"/>
	</g>
	<g>
		<path class="st2" d="M147.9,258.6c-0.6,0-1.1-0.4-1.2-1.1c-0.1-0.7,0.4-1.3,1-1.4l12.8-2c0.7-0.1,1.3,0.4,1.4,1s-0.4,1.3-1,1.4    l-12.8,2C148,258.6,147.9,258.6,147.9,258.6z"/>
	</g>
	<g>
		<path class="st2" d="M154.8,294c-0.4,0-0.9-0.2-1.1-0.6c-0.3-0.6-0.1-1.4,0.5-1.7l10.8-5.9c0.6-0.3,1.4-0.1,1.7,0.5    c0.3,0.6,0.1,1.4-0.5,1.7l-10.8,5.9C155.2,294,155,294,154.8,294z"/>
	</g>
	<g>
		<path class="st2" d="M169.4,321.9c-0.2,0-0.4,0-0.6-0.1c-0.6-0.3-0.8-1.1-0.5-1.7c1.4-2.6,3.4-4.8,6-6.3c0.6-0.3,1.4-0.2,1.7,0.4    c0.4,0.6,0.2,1.4-0.4,1.7c-2.1,1.2-3.9,3.1-5,5.3C170.3,321.6,169.8,321.9,169.4,321.9z"/>
	</g>
	<g>
		<path class="st2" d="M200.1,339.1c-0.1,0-0.2,0-0.3,0c-0.7-0.2-1.1-0.8-0.9-1.5c0.6-2.5,2.1-4.7,4.3-6.1c0.6-0.4,1.4-0.2,1.7,0.4    c0.4,0.6,0.2,1.4-0.4,1.7c-1.6,1-2.8,2.7-3.2,4.5C201.2,338.7,200.7,339.1,200.1,339.1z"/>
	</g>
	<g>
		<path class="st2" d="M250.3,331.8c-0.5,0-1-0.3-1.2-0.9l-3.3-10.9c-0.2-0.7,0.2-1.4,0.8-1.6c0.7-0.2,1.4,0.2,1.6,0.8l3.3,10.9    c0.2,0.7-0.2,1.4-0.8,1.6C250.5,331.8,250.4,331.8,250.3,331.8z"/>
	</g>
	<g>
		<path class="st2" d="M290.4,320.9c-0.1,0-0.3,0-0.4-0.1c-4-1.3-7.6-3.6-10.4-6.7c-0.5-0.5-0.4-1.3,0.1-1.8    c0.5-0.5,1.3-0.4,1.8,0.1c2.5,2.8,5.8,4.8,9.4,6c0.7,0.2,1,0.9,0.8,1.6C291.4,320.6,290.9,320.9,290.4,320.9z"/>
	</g>
	<g>
		<path class="st2" d="M307.8,292.6c-2.6,0-5.2-0.5-7.7-1.5c-0.6-0.3-0.9-1-0.7-1.6c0.3-0.6,1-0.9,1.6-0.7c3.6,1.5,7.7,1.8,11.5,0.7    c0.7-0.2,1.3,0.2,1.5,0.9c0.2,0.7-0.2,1.4-0.9,1.5C311.5,292.3,309.7,292.6,307.8,292.6z"/>
	</g>
	<g>
		<path class="st2" d="M307.1,259c-0.5,0-0.9-0.3-1.1-0.7c-0.3-0.6-0.1-1.4,0.6-1.7c6.2-3.1,13.4-4.4,20.3-3.7    c0.7,0.1,1.2,0.7,1.1,1.4c-0.1,0.7-0.7,1.2-1.4,1.1c-6.4-0.7-13.2,0.5-19,3.4C307.5,259,307.3,259,307.1,259z"/>
	</g>
	<g>
		<path class="st2" d="M320.8,225.1c-0.5,0-0.9-0.3-1.1-0.7c-0.3-0.6,0-1.4,0.6-1.7c2.9-1.4,6.1-2.1,9.4-2.1c0.7,0,1.2,0.6,1.2,1.3    c0,0.7-0.6,1.2-1.2,1.2c0,0-0.1,0-0.2,0c-2.8,0-5.6,0.6-8.2,1.8C321.2,225.1,321,225.1,320.8,225.1z"/>
	</g>
	<g>
		<path class="st2" d="M312,196.1c-0.4,0-0.7-0.2-1-0.5c-0.4-0.5-0.4-1.3,0.2-1.8l5.4-4.4c0.5-0.4,1.3-0.4,1.8,0.2    c0.4,0.5,0.4,1.3-0.2,1.8l-5.4,4.4C312.6,196,312.3,196.1,312,196.1z"/>
	</g>
	<g>
		<path class="st2" d="M295.6,179.2c-0.1,0-0.3,0-0.4-0.1c-0.7-0.2-1-0.9-0.8-1.6l2.9-8.4c0.2-0.6,0.9-1,1.6-0.8    c0.6,0.2,1,0.9,0.8,1.6l-2.9,8.4C296.6,178.8,296.1,179.2,295.6,179.2z"/>
	</g>
	<g>
		<path class="st2" d="M272.4,172.7c-0.6,0-1.1-0.4-1.2-1c-0.9-3.8-0.8-7.8,0.5-11.5c0.2-0.7,0.9-1,1.6-0.8c0.7,0.2,1,0.9,0.8,1.6    c-1.1,3.2-1.2,6.8-0.4,10.1c0.2,0.7-0.2,1.3-0.9,1.5C272.6,172.7,272.5,172.7,272.4,172.7z"/>
	</g>
	<g>
		<path class="st7" d="M230.8,104.3c4.6,4.3,26.6,3.8,32.5-1.3c2.9-2.5,4-7.3,1.4-10.1c-2.2-2.4-6-2.2-9.3-1.9    c-7,0.7-15,0.5-21.8,2.2C229.8,94.1,225.8,101.8,230.8,104.3z"/>
	</g>
	<g class="st3">
		<path d="M263.3,103c-2.9,2.5-6.8,3.2-10.6,3.6c-5.6,0.7-15.9,1.3-20.8-1.5c4.5-4.6,9.6-2.3,14.8-2.7c3.2-0.2,8.5-2.3,9.4-5.2    c0.5-1.9-0.9-3.7-0.4-6.2c3.2-0.3,6.9-0.4,9,2C267.3,95.7,266.2,100.5,263.3,103z"/>
	</g>
	<g>
		<path class="st2" d="M244.5,108.5c-6.2,0-11.9-1-14.4-3.1c-2.1-1.1-3.1-3.1-2.8-5.6c0.4-3.4,3.2-7,6.1-7.7    c0.7-0.2,1.3,0.2,1.5,0.9c0.2,0.7-0.2,1.3-0.9,1.5c-1.9,0.5-3.9,3.2-4.2,5.6c-0.2,1.5,0.4,2.6,1.6,3.2c0.1,0.1,0.2,0.1,0.3,0.2    c4,3.7,25.3,3.5,30.8-1.4c1.4-1.2,2.3-3.1,2.4-4.9c0-0.9-0.1-2.3-1.1-3.3c-1.9-2-5.2-1.8-8.3-1.5c-0.6,0.1-1.3-0.4-1.4-1.1    c-0.1-0.7,0.4-1.3,1.1-1.4c3.9-0.4,7.8-0.4,10.3,2.3c1.2,1.3,1.9,3.2,1.8,5.2c-0.1,2.5-1.4,5.1-3.3,6.7    C260.7,106.9,252.3,108.5,244.5,108.5z"/>
	</g>
	<g>
		<g>
			<path class="st7" d="M168.4,485.1c-0.4,1.6-0.7,3.2-1,4.8c-0.3,1.6-0.7,3.2-1.1,4.7l-0.3,1c-0.2,0.9-0.5,1.7-0.7,2.5     c-0.3,0.8-0.6,1.5-1.1,2.1c-0.5,0.6-1.1,1-1.8,1.2c-0.7,0.2-1.7,0.2-2.9-0.1c-1.2-0.3-2-0.7-2.6-1.3c-0.5-0.6-0.9-1.2-1-1.9     c-0.1-0.7-0.1-1.5,0-2.3c0.2-0.8,0.3-1.7,0.6-2.6l1.2-4.8l-13.7-3.5l-1.2,4.8c-0.2,0.9-0.5,1.7-0.7,2.5c-0.3,0.8-0.6,1.5-1.1,2.1     c-0.5,0.6-1.1,1-1.8,1.2c-0.7,0.2-1.7,0.2-2.9-0.1c-1.2-0.3-2.1-0.7-2.6-1.3c-0.5-0.6-0.9-1.2-1-1.9c-0.1-0.7-0.1-1.5,0-2.3     c0.2-0.8,0.4-1.7,0.6-2.5l0.3-1c0.2-0.7,0.4-1.5,0.6-2.3c0.2-0.8,0.4-1.6,0.7-2.4c0.2-0.8,0.5-1.6,0.7-2.4     c0.2-0.8,0.4-1.6,0.7-2.3c2.2-3.7,4.4-7.4,6.7-11.1c2.3-3.8,4.5-7.5,6.7-11.2c0.4-0.8,0.9-1.5,1.4-2.2c0.5-0.7,1.1-1.3,1.8-1.7     c0.7-0.5,1.5-0.7,2.4-0.9c0.9-0.1,2-0.1,3.3,0.3l3.4,0.9c1.3,0.3,2.3,0.8,3,1.3c0.7,0.6,1.3,1.2,1.7,1.9c0.4,0.7,0.6,1.5,0.7,2.4     c0.1,0.9,0.2,1.8,0.2,2.7L168.4,485.1z M147.8,476.3l10.9,2.8l-0.4-19.6l-0.8-0.2L147.8,476.3z"/>
		</g>
		<g>
			<path class="st7" d="M180.7,462.4c0.1-1,0.3-1.9,0.5-2.9c0.2-0.9,0.5-1.7,1-2.4c0.5-0.7,1.1-1.2,1.8-1.6c0.8-0.4,1.7-0.5,2.9-0.4     c1.2,0.1,2.2,0.5,2.8,1c0.7,0.5,1.1,1.2,1.4,1.9c0.3,0.8,0.4,1.6,0.4,2.6c0,0.9-0.1,1.9-0.2,2.9l-3.7,33.5     c-0.1,1-0.3,1.9-0.5,2.9c-0.2,0.9-0.5,1.8-1,2.4c-0.4,0.7-1,1.2-1.8,1.6c-0.7,0.4-1.7,0.5-2.9,0.3c-1.2-0.1-2.1-0.5-2.8-1     c-0.7-0.5-1.1-1.2-1.4-2c-0.3-0.8-0.4-1.6-0.4-2.6c0-1,0.1-1.9,0.2-2.9L180.7,462.4z"/>
		</g>
		<g>
			<path class="st7" d="M227.6,497.8c0,1,0,2-0.1,2.9c-0.1,1-0.3,1.8-0.6,2.6c-0.3,0.8-0.9,1.4-1.6,1.8c-0.7,0.5-1.7,0.7-3,0.7     c-1.3,0-2.3-0.2-3-0.6c-0.7-0.4-1.3-1-1.6-1.6c-0.4-0.6-0.6-1.3-0.7-2c-0.1-0.7-0.1-1.3-0.1-1.7c-0.2,0.7-0.5,1.4-0.9,2.1     c-0.4,0.7-0.9,1.4-1.5,1.9c-0.6,0.6-1.3,1-2.2,1.4c-0.9,0.4-1.9,0.6-3,0.6c-1.3,0-2.6-0.2-3.9-0.6c-1.3-0.4-2.5-1.1-3.5-2.1     c-1-1-1.9-2.3-2.6-3.8c-0.7-1.6-1-3.5-1-5.9l-0.1-10.2c0-2.4,0.3-4.3,0.9-5.9c0.6-1.6,1.5-2.9,2.5-3.9c1-1,2.2-1.7,3.5-2.1     c1.3-0.4,2.6-0.7,3.9-0.7c1.2,0,2.2,0.2,3,0.5c0.9,0.3,1.6,0.8,2.2,1.4c0.6,0.6,1.1,1.2,1.5,1.9c0.4,0.7,0.7,1.4,0.9,2.1     c0-1.2,0.1-2.2,0.5-2.9c0.3-0.8,0.7-1.4,1.2-1.9c0.5-0.5,1.1-0.8,1.7-1c0.6-0.2,1.3-0.3,1.9-0.3c1.2,0,2.1,0.2,2.8,0.7     c0.7,0.5,1.3,1,1.6,1.8c0.4,0.7,0.6,1.6,0.7,2.6c0.1,1,0.2,2,0.2,3L227.6,497.8z M209.1,492.6c0,0.6,0,1.3,0.1,1.9     c0.1,0.6,0.2,1.2,0.4,1.7c0.2,0.5,0.5,0.9,0.9,1.2c0.4,0.3,1,0.4,1.7,0.4c0.9,0,1.7-0.2,2.2-0.6c0.6-0.4,1-1.1,1.3-1.9     c0.3-0.9,0.5-1.9,0.7-3.3c0.1-1.3,0.2-2.9,0.2-4.7c0-0.7-0.1-1.6-0.2-2.5s-0.4-1.9-0.7-2.7c-0.3-0.8-0.8-1.6-1.4-2.1     c-0.6-0.6-1.4-0.9-2.3-0.9c-0.7,0-1.3,0.2-1.7,0.5c-0.4,0.3-0.7,0.7-0.9,1.2c-0.2,0.5-0.3,1-0.4,1.6c0,0.6-0.1,1.2-0.1,1.8     L209.1,492.6z"/>
		</g>
		<g>
			<path class="st7" d="M258.2,471.7c0.3,1.8,0,3.2-0.8,4.2c-0.8,1-2,1.6-3.7,1.8c-0.2,0-0.6,0.1-1,0.2c-0.4,0.1-0.9,0.3-1.3,0.5     c-0.5,0.2-0.9,0.5-1.4,0.9c-0.5,0.4-0.9,0.8-1.2,1.4c-0.4,0.6-0.6,1.2-0.8,2c-0.2,0.8-0.2,1.7,0,2.8l1.4,10     c0.1,1,0.2,1.9,0.2,2.8c0,0.9-0.1,1.8-0.4,2.5c-0.3,0.8-0.7,1.4-1.4,2c-0.6,0.5-1.6,0.9-2.7,1.1c-1.2,0.2-2.1,0.1-2.9-0.3     c-0.7-0.4-1.3-0.9-1.8-1.5c-0.5-0.7-0.8-1.4-1-2.3c-0.2-0.9-0.4-1.8-0.5-2.8l-2.7-19.6c-0.1-1-0.2-1.9-0.2-2.9     c0-0.9,0.1-1.8,0.4-2.6c0.3-0.8,0.7-1.4,1.3-1.9c0.6-0.5,1.5-0.9,2.7-1c1.2-0.2,2.1,0,2.9,0.4c0.7,0.4,1.3,1,1.7,1.8     c0.4,0.8,0.7,1.7,0.9,2.7c0.2,1,0.3,2,0.5,2.9l0.6-0.1c0.1-1.3,0.4-2.6,0.8-3.7c0.4-1.1,0.9-2.1,1.4-2.9c0.6-0.8,1.2-1.5,1.9-2     c0.7-0.5,1.4-0.8,2.2-0.9c0.9-0.1,1.7-0.1,2.3,0c0.6,0.1,1.1,0.4,1.5,0.7c0.4,0.4,0.7,0.9,0.9,1.5     C257.9,470.1,258.1,470.8,258.2,471.7z"/>
		</g>
		<g>
			<path class="st7" d="M295.3,493.2c-1.1,0.3-2.1,0.4-2.9,0.2c-0.8-0.2-1.5-0.7-2.1-1.3c-0.6-0.6-1.1-1.4-1.4-2.2     c-0.4-0.9-0.7-1.8-1-2.7l-4-13.4c-0.2-0.6-0.4-1.2-0.6-1.8c-0.2-0.6-0.5-1-0.9-1.4c-0.3-0.4-0.7-0.7-1.2-0.8     c-0.5-0.2-1.1-0.1-1.7,0.1c-0.9,0.3-1.5,0.8-1.9,1.6c-0.4,0.8-0.6,1.7-0.6,2.9c0,1.1,0.1,2.4,0.4,3.9c0.3,1.5,0.7,3,1.2,4.7     l2,6.6c0.3,0.9,0.5,1.9,0.7,2.8c0.2,0.9,0.2,1.8,0.1,2.7c-0.1,0.8-0.5,1.6-1,2.2c-0.5,0.6-1.4,1.1-2.6,1.5     c-1.2,0.4-2.2,0.4-3,0.2c-0.8-0.2-1.5-0.7-2.1-1.3c-0.6-0.6-1-1.4-1.4-2.3c-0.4-0.9-0.7-1.8-1-2.7l-5.6-18.5     c-0.3-0.9-0.5-1.9-0.7-2.8c-0.2-0.9-0.2-1.8-0.1-2.6c0.1-0.8,0.5-1.6,1-2.2c0.6-0.6,1.4-1.2,2.7-1.5c1.2-0.4,2.3-0.5,3.1-0.2     c0.8,0.2,1.5,0.6,2,1.1c0.5,0.5,0.9,1.1,1.2,1.7c0.3,0.6,0.5,1.2,0.6,1.6c0-0.7,0.1-1.5,0.4-2.3c0.2-0.8,0.6-1.6,1.1-2.3     c0.5-0.7,1.2-1.4,1.9-2c0.8-0.6,1.7-1.1,2.8-1.4c1.5-0.4,3-0.5,4.7-0.2c1.6,0.3,3.2,1.1,4.6,2.4c0.1-0.9,0.4-1.7,0.9-2.5     c0.5-0.8,1.1-1.5,1.8-2.1c0.7-0.6,1.5-1.2,2.4-1.7c0.9-0.5,1.8-0.8,2.7-1.1c1.2-0.4,2.5-0.5,3.9-0.5c1.4,0,2.7,0.4,4,1     c1.3,0.7,2.4,1.6,3.5,3c1.1,1.3,2,3.1,2.6,5.4l4.3,14.2c0.3,0.9,0.5,1.9,0.7,2.8c0.2,0.9,0.2,1.8,0,2.7c-0.1,0.8-0.5,1.6-1,2.2     c-0.6,0.6-1.4,1.1-2.6,1.5c-1.2,0.4-2.2,0.4-3,0.2c-0.8-0.2-1.5-0.7-2.1-1.3c-0.6-0.6-1.1-1.4-1.4-2.2c-0.4-0.9-0.7-1.8-1-2.7     l-4-13.4c-0.2-0.6-0.4-1.2-0.6-1.8c-0.2-0.6-0.5-1-0.9-1.4c-0.3-0.4-0.8-0.7-1.2-0.8c-0.5-0.2-1.1-0.1-1.8,0.1     c-0.7,0.2-1.3,0.6-1.6,1.2c-0.4,0.6-0.6,1.3-0.7,2.2c-0.1,0.9-0.1,1.9,0.1,3.1c0.1,1.1,0.4,2.4,0.7,3.7l2.8,9.3     c0.3,0.9,0.5,1.9,0.7,2.8c0.2,0.9,0.2,1.8,0,2.7c-0.1,0.8-0.5,1.6-1.1,2.2C297.3,492.4,296.4,492.8,295.3,493.2z"/>
		</g>
		<g>
			<path class="st7" d="M343,416.2c2-1.6,4-2.7,5.8-3.4s3.6-1,5.1-1.1c1.6,0,3.1,0.2,4.4,0.6c1.3,0.5,2.5,1.1,3.6,1.8     c1.1,0.7,2,1.5,2.8,2.3c0.8,0.8,1.4,1.6,1.9,2.2c0.2,0.3,0.5,0.6,0.7,1.1c0.3,0.4,0.4,0.9,0.4,1.5c0,0.6-0.2,1.2-0.6,2     c-0.4,0.7-1.2,1.5-2.3,2.4c-0.4,0.3-0.9,0.6-1.5,1c-0.6,0.4-1.2,0.7-1.9,0.9c-0.7,0.2-1.3,0.3-2,0.2c-0.7-0.1-1.2-0.4-1.7-1.1     c-0.8-1-1.5-1.9-2.3-2.6c-0.7-0.7-1.5-1.2-2.2-1.5c-0.7-0.3-1.5-0.4-2.3-0.3c-0.8,0.1-1.6,0.5-2.5,1.2c-0.9,0.7-1.5,1.4-1.7,2.2     c-0.2,0.8-0.2,1.5-0.1,2.1c0.2,0.7,0.5,1.5,1,2.2l13.6,17.7c0.7,0.8,1.4,1.4,2.1,1.8c0.6,0.4,1.4,0.6,2.2,0.7     c0.8,0.1,1.7-0.3,2.6-1c0.9-0.7,1.5-1.4,1.7-2.2c0.3-0.8,0.3-1.6,0.2-2.5c-0.2-0.9-0.5-1.7-1-2.6c-0.5-0.9-1.1-1.8-1.8-2.7     c-0.2-0.3-0.4-0.6-0.5-1c-0.1-0.4-0.1-0.8,0-1.3c0.1-0.5,0.5-1.1,1-1.8c0.5-0.7,1.3-1.4,2.5-2.3c1.1-0.9,2.1-1.4,2.9-1.6     c0.8-0.2,1.5-0.3,2-0.2c0.5,0.1,0.9,0.3,1.2,0.6c0.3,0.3,0.5,0.5,0.5,0.5c1.6,2.1,2.6,4.1,3.2,6.3c0.6,2.1,0.6,4.3,0.2,6.4     c-0.4,2.1-1.2,4.1-2.5,6c-1.3,1.9-3,3.7-5.1,5.3c-0.3,0.3-0.9,0.7-1.7,1.2c-0.8,0.5-1.8,1-2.9,1.5c-1.1,0.5-2.4,0.8-3.7,1.1     c-1.4,0.3-2.8,0.3-4.3,0c-1.5-0.2-3-0.8-4.5-1.7c-1.5-0.9-3-2.3-4.4-4.1l-12-15.6c-1.2-1.5-2-3-2.6-4.5c-0.5-1.5-0.8-2.9-0.9-4.2     c-0.1-1.3,0.1-2.6,0.4-3.8c0.3-1.2,0.8-2.3,1.3-3.3C338.9,420.4,340.6,418.2,343,416.2z"/>
		</g>
		<g>
			<path class="st7" d="M363.6,407.9c-0.8-0.6-1.5-1.2-2.2-1.8c-0.7-0.6-1.2-1.3-1.6-2.1c-0.4-0.7-0.5-1.5-0.5-2.4     c0.1-0.8,0.4-1.7,1.2-2.7c0.7-1,1.5-1.6,2.3-1.9c0.8-0.3,1.6-0.4,2.4-0.2c0.8,0.1,1.6,0.4,2.4,0.9c0.8,0.5,1.6,1,2.4,1.6l27.1,20     c0.8,0.6,1.5,1.2,2.3,1.9c0.7,0.7,1.2,1.3,1.6,2.1c0.4,0.7,0.5,1.5,0.5,2.4c-0.1,0.8-0.5,1.7-1.2,2.7c-0.7,1-1.5,1.6-2.2,1.9     c-0.8,0.3-1.6,0.4-2.4,0.3c-0.8-0.1-1.6-0.4-2.5-0.9c-0.8-0.5-1.6-1-2.4-1.6L363.6,407.9z"/>
		</g>
		<g>
			<path class="st7" d="M391.4,402.6c-2-0.8-3.6-1.8-4.8-2.9c-1.2-1.1-2-2.3-2.6-3.5c-0.6-1.2-0.9-2.5-1-3.8     c-0.1-1.3-0.1-2.5,0.1-3.6c0.2-1.1,0.4-2.1,0.7-3.1c0.3-0.9,0.6-1.6,0.8-2.1c0.2-0.5,0.5-1.2,0.9-2c0.4-0.8,1-1.7,1.6-2.6     c0.7-0.9,1.5-1.7,2.4-2.5c0.9-0.8,2-1.4,3.3-1.8c1.3-0.4,2.7-0.6,4.3-0.6c1.6,0.1,3.4,0.5,5.4,1.3l8.1,3.3c2,0.8,3.6,1.8,4.8,2.9     c1.2,1.1,2.1,2.2,2.7,3.4c0.6,1.2,1,2.4,1.1,3.6c0.1,1.2,0.1,2.4-0.1,3.5c-0.1,1.1-0.4,2.1-0.7,3c-0.3,0.9-0.5,1.6-0.8,2.1     c-0.2,0.5-0.5,1.2-0.9,2c-0.4,0.9-1,1.7-1.7,2.7c-0.7,0.9-1.5,1.8-2.5,2.6c-1,0.8-2.1,1.5-3.4,2c-1.3,0.5-2.7,0.7-4.4,0.7     c-1.6,0-3.4-0.5-5.4-1.3L391.4,402.6z M406,396.8c0.6,0.2,1.3,0.3,1.9,0.2c0.5-0.1,1.1-0.3,1.6-0.7c0.5-0.4,1-1,1.4-2     c0.4-0.9,0.5-1.7,0.4-2.3c-0.1-0.6-0.4-1.1-0.7-1.6c-0.4-0.5-0.9-0.8-1.5-1.1l-11.8-4.9c-0.7-0.2-1.3-0.3-2-0.3     c-0.5,0.1-1.1,0.3-1.7,0.6c-0.6,0.3-1.1,1-1.4,1.9c-0.4,1-0.5,1.8-0.3,2.4c0.2,0.7,0.4,1.2,0.8,1.6c0.4,0.5,1,0.9,1.6,1.2     L406,396.8z"/>
		</g>
		<g>
			<path class="st7" d="M416.3,359.9c0.4,0.1,0.8,0.1,1.4,0.2c0.6,0.1,1.2,0,1.8-0.1c0.6-0.1,1.1-0.4,1.6-0.8c0.5-0.4,0.8-1,1-1.9     c0.2-1,0.3-1.8,0.2-2.5c-0.1-0.6-0.3-1.1-0.7-1.5c-0.3-0.4-0.8-0.6-1.3-0.8c-0.5-0.2-1.1-0.3-1.7-0.5c-0.3-0.1-0.6-0.2-1-0.4     c-0.4-0.2-0.7-0.5-0.9-1c-0.2-0.5-0.4-1.1-0.4-1.9c-0.1-0.8,0.1-1.9,0.4-3.2c0.3-1.2,0.6-2.1,1-2.7c0.4-0.6,0.9-1,1.3-1.3     c0.4-0.2,0.9-0.3,1.3-0.3c0.4,0,0.7,0.1,1,0.1c1.5,0.3,2.7,0.8,3.7,1.5c1,0.7,1.9,1.5,2.5,2.4c0.7,0.9,1.1,2,1.5,3.1     c0.3,1.1,0.5,2.3,0.6,3.4c0.1,1.2,0.1,2.4,0,3.5c-0.1,1.2-0.3,2.3-0.5,3.4c-0.4,1.8-1,3.5-1.9,5.1c-0.9,1.6-1.9,2.9-3.3,4     c-1.3,1.1-2.9,1.9-4.7,2.3c-1.8,0.5-3.8,0.4-6.1-0.1l-8.1-1.8c-2.2-0.5-4-1.1-5.4-2c-1.4-0.8-2.5-1.8-3.4-2.8     c-0.8-1-1.4-2.2-1.8-3.3c-0.3-1.2-0.5-2.3-0.6-3.4c0-1.1,0-2.2,0.1-3.1c0.1-1,0.3-1.8,0.4-2.5c0.4-2,1-3.8,1.7-5.3     c0.7-1.5,1.4-2.7,2.2-3.7c0.8-1,1.7-1.7,2.6-2.3c0.9-0.6,1.8-1,2.7-1.2c0.9-0.2,1.8-0.3,2.7-0.3c0.9,0,1.7,0.1,2.4,0.2     c0.4,0.1,0.8,0.2,1.3,0.4c0.5,0.2,0.9,0.4,1.3,0.8s0.7,1,0.8,1.7c0.2,0.7,0.1,1.7-0.1,2.9c-0.1,0.4-0.2,1-0.4,1.6     c-0.2,0.6-0.4,1.3-0.8,1.8c-0.3,0.6-0.8,1-1.3,1.4c-0.5,0.3-1.2,0.4-2,0.2c-0.6-0.1-1.1-0.2-1.6-0.3c-0.5-0.1-1,0-1.5,0.2     c-0.5,0.2-0.9,0.5-1.2,1.1c-0.4,0.5-0.7,1.3-0.9,2.3c-0.2,0.8-0.2,1.6,0,2.1c0.2,0.6,0.4,1,0.8,1.3c0.4,0.3,0.8,0.6,1.2,0.8     c0.4,0.2,0.8,0.3,1.2,0.4L416.3,359.9z"/>
		</g>
		<g>
			<path class="st7" d="M392.6,328.1c-1-0.1-1.9-0.3-2.9-0.5c-0.9-0.2-1.7-0.5-2.4-0.9c-0.7-0.4-1.2-1-1.5-1.7     c-0.4-0.7-0.4-1.7-0.3-2.9c0.2-1.2,0.5-2.1,1-2.7c0.5-0.6,1.2-1,2-1.2c0.8-0.2,1.6-0.3,2.6-0.2c0.9,0.1,1.9,0.2,2.9,0.3l13.8,1.9     l0.1-0.6l-7.5-8.4c-0.4-0.5-0.7-1-0.9-1.6c-0.1-0.6-0.2-1.2-0.1-1.8c0.1-0.6,0.3-1.2,0.6-1.7c0.3-0.6,0.7-1,1.2-1.4     c0.5-0.4,1-0.7,1.6-0.9s1.3-0.3,2-0.2c0.9,0.1,1.8,0.6,2.5,1.3l6.6,7.3l14-5.1c0.9-0.3,1.8-0.6,2.7-0.7c0.9-0.2,1.7-0.2,2.5-0.1     c0.7,0.1,1.4,0.4,1.9,0.8c0.5,0.4,1,0.9,1.3,1.5c0.3,0.6,0.5,1.2,0.6,1.9c0.1,0.7,0.1,1.3,0,1.9c-0.1,0.8-0.4,1.4-0.8,2     c-0.5,0.6-1,1-1.6,1.4c-0.6,0.4-1.3,0.7-1.9,1c-0.7,0.3-1.3,0.5-1.9,0.6l-8.9,2.8l-0.3,2l5.9,0.8c1,0.1,1.9,0.3,2.9,0.5     c0.9,0.2,1.8,0.5,2.4,0.9c0.7,0.4,1.2,1,1.6,1.7c0.4,0.7,0.4,1.7,0.3,2.9c-0.2,1.2-0.5,2.1-1,2.7c-0.5,0.6-1.2,1-2,1.2     c-0.8,0.2-1.6,0.3-2.6,0.3s-1.9-0.2-2.9-0.3L392.6,328.1z"/>
		</g>
	</g>
	<g>
		<path class="st0" d="M104.6,190.7c1.9,0.7,4.4,0,5.1-2c0.5-1.4-0.2-2.9-0.9-4.3c-12.5-25-13.3-27.4-16.8-30.5    c-8.2-7.2-21.7,0.2-9.8,12.7C88.4,173.2,100.6,189.3,104.6,190.7z"/>
	</g>
	<g>
		<path class="st2" d="M82.2,167.9c-0.3,0-0.7-0.1-0.9-0.4c-6.4-6.8-5.8-12.2-3.1-15.1c3.1-3.2,9.5-3.9,14.5,0.6    c0.5,0.5,0.6,1.2,0.1,1.8c-0.5,0.5-1.2,0.6-1.8,0.1c-3.8-3.4-8.8-3.1-11.1-0.7c-2.5,2.6-1.3,7,3.1,11.6c0.5,0.5,0.5,1.3,0,1.8    C82.8,167.8,82.5,167.9,82.2,167.9z"/>
	</g>
	<g>
		<path class="st2" d="M106.1,192.2c-0.6,0-1.3-0.1-1.9-0.3c-2.3-0.8-3.9-2.7-5.2-4.1c-0.5-0.5-0.4-1.3,0.1-1.8    c0.5-0.4,1.3-0.4,1.8,0.1c1.4,1.6,2.6,2.9,4.1,3.4c0.8,0.3,1.8,0.2,2.5-0.1c0.3-0.2,0.8-0.5,1-1c0.4-1.1-0.1-2.1-5.4-12.6    c-1.6-3.1-3.6-7-6-12c-0.3-0.6-0.1-1.4,0.6-1.7s1.4-0.1,1.7,0.6c2.5,5,4.5,8.9,6,12c5.9,11.7,6.3,12.4,5.6,14.5    c-0.4,1.1-1.1,1.9-2.2,2.5C107.9,192,107,192.2,106.1,192.2z"/>
	</g>
	<g>
		<path class="st0" d="M87.8,195.4c2-0.5,3.7-2.4,3.2-4.4c-0.6-2.1-1.6-2.2-23.5-15.3c-3.2-1.9-6.5-3.8-10.2-4.4    c-10.8-1.7-18.1,11.8-1.4,15.9C76.4,192.2,83.6,196.4,87.8,195.4z"/>
	</g>
	<g>
		<path class="st2" d="M55.9,188.5c-0.1,0-0.2,0-0.3,0c-9.1-2.2-11.5-7.2-10.7-11c0.9-4.3,5.9-8.4,12.6-7.3c0.7,0.1,1.1,0.7,1,1.4    c-0.1,0.7-0.8,1.1-1.4,1c-5-0.8-9.1,2.1-9.7,5.4c-0.7,3.5,2.7,6.6,8.9,8.1c0.7,0.2,1.1,0.8,0.9,1.5    C57,188.1,56.5,188.5,55.9,188.5z"/>
	</g>
	<g>
		<path class="st2" d="M86.2,196.8c-1.7,0-3.4-0.5-4.8-0.9c-0.7-0.2-1-0.9-0.8-1.6c0.2-0.7,0.9-1,1.6-0.8c1.7,0.5,3.6,1.1,5.3,0.7    c0.8-0.2,1.6-0.8,2-1.5c0.2-0.3,0.4-0.8,0.3-1.4c-0.3-1.1-1.2-1.7-11.4-7.7c-3-1.8-6.8-4-11.6-6.8c-0.6-0.4-0.8-1.1-0.4-1.7    c0.4-0.6,1.1-0.8,1.7-0.4c4.8,2.8,8.5,5.1,11.5,6.8c11.3,6.6,12,7,12.5,9.2c0.3,1.1,0.1,2.2-0.5,3.3c-0.8,1.3-2.1,2.3-3.6,2.6    C87.4,196.7,86.8,196.8,86.2,196.8z"/>
	</g>
	<g>
		<path class="st0" d="M96.4,212.7c1.5-1.4,2-4,0.6-5.4c-1.6-1.6-2.5-1.1-28-1.3c-3.7,0-7.6,0-11,1.3c-10.1,4-9.7,19.4,6.9,14.4    C85,215.7,93.3,215.7,96.4,212.7z"/>
	</g>
	<g>
		<path class="st2" d="M58.9,224c-4.9,0-7.7-2.4-8.6-5.1c-1.4-4.2,0.9-10.2,7.1-12.7c0.6-0.3,1.4,0.1,1.6,0.7    c0.3,0.6-0.1,1.4-0.7,1.6c-4.7,1.9-6.8,6.4-5.7,9.6c1.2,3.4,5.7,4.4,11.8,2.5c0.7-0.2,1.4,0.2,1.6,0.8c0.2,0.7-0.2,1.4-0.8,1.6    C62.8,223.7,60.7,224,58.9,224z"/>
	</g>
	<g>
		<path class="st2" d="M90.9,216.4c-0.6,0-1.1-0.4-1.2-0.9c-0.2-0.7,0.2-1.3,0.9-1.5c1.7-0.4,3.7-0.9,4.9-2.1c0.6-0.6,1-1.5,1-2.3    c0-0.4-0.1-0.9-0.5-1.3c-0.8-0.8-1.9-0.9-13.7-0.9c-3.5,0-7.9,0-13.4-0.1c-0.7,0-1.2-0.6-1.2-1.3s0.6-1.2,1.2-1.2c0,0,0,0,0,0    c5.5,0,9.9,0,13.4,0.1c13.1,0,13.9,0,15.5,1.6c0.8,0.8,1.2,1.9,1.2,3.1c0,1.5-0.7,3-1.8,4.1c-1.7,1.7-4.1,2.3-6,2.7    C91.1,216.4,91,216.4,90.9,216.4z"/>
	</g>
	<g>
		<path class="st0" d="M391,247.5c-1.9,0.7-4.4,0.1-5.1-1.8c-0.5-1.4,0.1-2.9,0.7-4.3c11.7-25.4,12.4-27.8,15.8-31    c7.9-7.5,21.7-0.5,10.2,12.4C398.6,238.5,395,246,391,247.5z"/>
	</g>
	<g>
		<path class="st2" d="M412.7,224c-0.3,0-0.6-0.1-0.8-0.3c-0.5-0.5-0.6-1.2-0.1-1.8c4.2-4.7,5.3-9.2,2.7-11.7    c-2.4-2.3-7.4-2.4-11.1,1.1c-0.5,0.5-1.3,0.4-1.8,0c-0.5-0.5-0.5-1.3,0-1.8c4.9-4.6,11.3-4.2,14.5-1.1c2.8,2.8,3.7,8.2-2.6,15.2    C413.3,223.8,413,224,412.7,224z"/>
	</g>
	<g>
		<path class="st2" d="M389.4,249c-0.8,0-1.6-0.2-2.4-0.5c-1.1-0.5-1.9-1.4-2.3-2.4c-0.7-2,0.2-4,0.8-5.2l10-21.6    c0.3-0.6,1-0.9,1.7-0.6c0.6,0.3,0.9,1,0.6,1.7l-10,21.6c-0.5,1.2-1,2.4-0.7,3.3c0.2,0.5,0.6,0.8,1,1c0.7,0.3,1.7,0.4,2.5,0.1    c1.6-0.6,2.9-2.2,4-3.5c0.4-0.5,1.2-0.6,1.8-0.2c0.5,0.4,0.6,1.2,0.2,1.8c-1.2,1.5-2.8,3.5-5,4.3C390.8,248.9,390.1,249,389.4,249    z"/>
	</g>
	<g>
		<path class="st0" d="M408,251.6c-2-0.4-3.8-2.3-3.4-4.3c0.3-1.5,1.7-2.4,2.9-3.2c23.5-15,25.4-16.7,30.1-17.6    c3.7-0.7,7.9,0.3,10,3.3c4.7,6.8-2.7,11-8.1,12.5C419.3,248.1,412.2,252.5,408,251.6z"/>
	</g>
	<g>
		<path class="st2" d="M439.6,243.7c-0.5,0-1-0.4-1.2-0.9c-0.2-0.7,0.2-1.3,0.9-1.5c6.1-1.7,9.4-4.9,8.6-8.4c-0.7-3.2-4.9-6-9.9-5.1    c-0.7,0.1-1.3-0.3-1.5-1c-0.1-0.7,0.3-1.3,1-1.5c6.6-1.2,11.8,2.6,12.8,6.9c0.9,3.9-1.3,8.9-10.4,11.4    C439.8,243.7,439.7,243.7,439.6,243.7z"/>
	</g>
	<g>
		<path class="st2" d="M409.3,253c-0.5,0-1,0-1.6-0.2c-1.5-0.3-2.9-1.3-3.7-2.5c-0.7-1-0.9-2.2-0.6-3.3c0.5-2.1,2.4-3.3,3.5-4    l20.1-12.8c0.6-0.4,1.4-0.2,1.7,0.4c0.4,0.6,0.2,1.4-0.4,1.7l-20.1,12.8c-1.1,0.7-2.2,1.5-2.4,2.4c-0.1,0.6,0.1,1,0.3,1.4    c0.4,0.7,1.3,1.2,2.1,1.4c1.7,0.3,3.6-0.3,5.3-0.8c0.7-0.2,1.4,0.1,1.6,0.8c0.2,0.7-0.1,1.4-0.8,1.6    C412.9,252.4,411.1,253,409.3,253z"/>
	</g>
	<g>
		<path class="st0" d="M400,269.2c-1.5-1.4-2.1-3.9-0.7-5.4c1-1.1,2.7-1.2,4.2-1.3c27.9-1.1,30.4-1.5,34.8,0.1    c10.3,3.7,10.3,19.1-6.4,14.7C423.2,275,403.1,272.1,400,269.2z"/>
	</g>
	<g>
		<path class="st2" d="M437.3,279.3c-1.7,0-3.6-0.3-5.7-0.8c-0.7-0.2-1.1-0.9-0.9-1.5c0.2-0.7,0.8-1.1,1.5-0.9    c6.1,1.6,10.6,0.5,11.7-2.9c1-3.1-1.2-7.6-6-9.4c-0.6-0.2-1-0.9-0.8-1.6c0.2-0.6,0.9-1,1.6-0.8c6.3,2.3,8.8,8.2,7.5,12.5    C445.3,276.8,442.5,279.3,437.3,279.3z"/>
	</g>
	<g>
		<path class="st2" d="M405.5,272.7c-0.1,0-0.2,0-0.3,0c-1.9-0.4-4.3-0.9-6.1-2.5c-1.1-1-1.8-2.5-1.9-4c-0.1-1.2,0.3-2.3,1.1-3.1    c1.4-1.5,3.7-1.6,5-1.7l23.8-0.9c0,0,0,0,0,0c0.7,0,1.2,0.5,1.2,1.2c0,0.7-0.5,1.3-1.2,1.3l-23.8,0.9c-1.3,0-2.6,0.2-3.3,0.9    c-0.4,0.4-0.4,1-0.4,1.3c0,0.8,0.5,1.7,1.1,2.3c1.3,1.2,3.2,1.6,5,1.9c0.7,0.1,1.1,0.8,1,1.5C406.6,272.3,406.1,272.7,405.5,272.7    z"/>
	</g>
	<g>
		<path class="st2" d="M126.6,451.9c-0.5,0-0.9-0.3-1.1-0.7c-4.9-11-18.8-38.5-31.2-56.3c-3.8,5.7-9.4,9.5-15.9,10.5    c-7.1,1.1-13.8-1.4-17.8-6.9c-2.5-3.4-3.4-8-2.6-12.4c0.8-4,3-7.3,6.2-9.3c5.1-3.1,12.3-2.6,18.3,1.2c3.4,2.1,7.3,6.5,11.5,12.2    c0.5-1.1,1-2.3,1.4-3.6c2.1-6.2,2.2-13.5,0.5-21.7c-2.9-13.6-10.1-26-17.1-38l-1.4-2.4c-7.5-13-15-26.9-16.7-41.9    c-1.6-14.1,3.1-32,17-40.4c0.6-0.3,1.4-0.2,1.7,0.4c0.4,0.6,0.2,1.4-0.4,1.7c-13,7.8-17.3,24.7-15.8,38c1.6,14.6,8.7,27.7,16.4,41    l1.4,2.4c7.1,12.2,14.4,24.7,17.3,38.7c1.8,8.6,1.7,16.3-0.5,23c-0.6,1.8-1.3,3.5-2.2,5.1c12.7,17.9,26.8,45.9,32,57.6    c0.3,0.6,0,1.4-0.6,1.6C127,451.9,126.8,451.9,126.6,451.9z M71.9,377.3c-2.3,0-4.5,0.6-6.4,1.7c-2.6,1.6-4.4,4.3-5,7.6    c-0.7,3.7,0.1,7.6,2.1,10.4c3.5,4.7,9.2,6.9,15.4,5.9c6-1,11.3-4.7,14.7-10.2c-4.2-5.9-8.2-10.4-11.6-12.5    C78.2,378.3,75,377.3,71.9,377.3z"/>
	</g>
	<g>
		<path class="st2" d="M436.9,197.9c-0.2,0-0.4,0-0.6-0.2c-0.6-0.3-0.8-1.1-0.5-1.7c4.4-8,7.4-19.8,7-29.3c-0.4,0.4-0.9,0.8-1.3,1.1    c-3.2,2.4-7.4,3.4-11.4,2.8c-3.4-0.5-6.2-2.2-8-4.7c-2.6-3.7-2.8-8.9-0.3-12.7c2.2-3.5,6-5.4,10.1-5.1c4.7,0.3,8.8,3.4,11.1,8.2    c0.6,1.2,1.1,2.6,1.4,4.1c1.8-3.3,2.8-7.4,3-12c0.4-11.3-4.5-22.4-13-29.9c-0.5-0.5-0.6-1.2-0.1-1.8c0.5-0.5,1.2-0.6,1.8-0.1    c9.1,7.9,14.3,19.8,13.9,31.8c-0.2,6.2-1.9,11.6-4.8,15.6c1.2,10.4-2.2,24-7.1,33.1C437.8,197.6,437.3,197.9,436.9,197.9z     M431.2,150.7c-3,0-5.7,1.5-7.3,4c-1.9,2.9-1.8,7.1,0.2,9.9c1.4,1.9,3.6,3.2,6.3,3.6c3.4,0.5,6.9-0.4,9.6-2.4    c0.9-0.7,1.8-1.5,2.5-2.4c-0.3-2.2-0.9-4.2-1.7-6c-1.9-4-5.3-6.6-9.1-6.8C431.6,150.7,431.4,150.7,431.2,150.7z"/>
	</g>
	<g>
		<path class="st2" d="M246,68.1c-0.4,0-0.8-0.2-1-0.6c-0.4-0.6-0.2-1.3,0.4-1.7c8-5.2,12.4-13.1,14.1-21.2    c-0.7,0.2-1.5,0.3-2.2,0.4c-3.7,0.2-7.2-1.6-9.8-5.2c-2.2-3.1-3.6-7.1-3.9-11.1c-0.3-4.9,1-8.9,3.6-11.1c1.8-1.5,4-2.1,6.2-1.7    c4.1,0.9,7.5,6.2,8.9,13.7c0.6,3.3,0.8,6.9,0.4,10.5c1.9-1.5,3.6-3.6,5.3-5.6l0.9-1.1c14.2-16.8,35.9-24.5,56.5-20.2    c18.5,3.9,32.7,16.6,37.9,33.9c0.2,0.7-0.2,1.4-0.8,1.6c-0.7,0.2-1.4-0.2-1.6-0.8c-4.9-16.5-18.4-28.5-36-32.2    c-19.7-4.1-40.5,3.3-54.1,19.4l-0.9,1.1c-2.2,2.7-4.7,5.6-7.7,7.3c-1.6,9.3-6.4,18.5-15.5,24.5C246.4,68,246.2,68.1,246,68.1z     M251.8,18.2c-1.1,0-2.2,0.4-3.1,1.2c-2,1.7-3,4.9-2.7,9.1c0.2,3.5,1.5,7.2,3.4,9.8c1.5,2,4,4.4,7.6,4.2c1-0.1,2-0.3,2.9-0.7    c0.6-4.1,0.4-8.1-0.2-11.7c-1.1-6.4-3.9-11.1-6.9-11.7C252.4,18.2,252.1,18.2,251.8,18.2z"/>
	</g>
	<g>
		<path class="st1" d="M435.4,51.7c0,7.5-6,13.5-13.5,13.5c-7.5,0-13.5-6.1-13.5-13.5s6-13.5,13.5-13.5    C429.3,38.2,435.4,44.3,435.4,51.7z"/>
	</g>
	<g>
		<path class="st2" d="M412.3,62.5c-0.3,0-0.6-0.1-0.9-0.4c-5.7-5.7-5.7-15.1,0-20.9c5.8-5.8,15.1-5.8,20.9,0c0.5,0.5,0.5,1.3,0,1.8    c-0.5,0.5-1.3,0.5-1.8,0c-4.8-4.8-12.6-4.8-17.3,0c-4.8,4.8-4.8,12.6,0,17.3c0.5,0.5,0.5,1.3,0,1.8    C412.9,62.4,412.6,62.5,412.3,62.5z"/>
	</g>
	<g>
		<path class="st7" d="M33.8,247.8c0,7.5-6,13.5-13.5,13.5c-7.5,0-13.5-6.1-13.5-13.5c0-7.5,6-13.5,13.5-13.5    C27.7,234.3,33.8,240.3,33.8,247.8z"/>
	</g>
	<g>
		<path class="st2" d="M10.7,258.6c-0.3,0-0.6-0.1-0.9-0.4c-2.8-2.8-4.3-6.5-4.3-10.4c0-3.9,1.5-7.6,4.3-10.4    c2.8-2.8,6.5-4.3,10.4-4.3c0,0,0,0,0,0c3.9,0,7.6,1.5,10.4,4.3c0.5,0.5,0.5,1.3,0,1.8c-0.5,0.5-1.3,0.5-1.8,0    c-4.8-4.8-12.6-4.8-17.3,0c-2.3,2.3-3.6,5.4-3.6,8.7s1.3,6.4,3.6,8.7c0.5,0.5,0.5,1.3,0,1.8C11.3,258.5,11,258.6,10.7,258.6z"/>
	</g>
	<g>
		<path class="st4" d="M506.5,296.2c0,7.5-6,13.5-13.5,13.5c-7.5,0-13.5-6.1-13.5-13.5s6-13.5,13.5-13.5    C500.5,282.7,506.5,288.7,506.5,296.2z"/>
	</g>
	<g>
		<path class="st2" d="M483.4,307c-0.3,0-0.6-0.1-0.9-0.4c-2.8-2.8-4.3-6.5-4.3-10.4c0-3.9,1.5-7.6,4.3-10.4    c2.8-2.8,6.5-4.3,10.4-4.3c0,0,0,0,0,0c3.9,0,7.6,1.5,10.4,4.3c0.5,0.5,0.5,1.3,0,1.8c-0.5,0.5-1.3,0.5-1.8,0    c-2.3-2.3-5.4-3.6-8.7-3.6c0,0,0,0,0,0c-3.3,0-6.4,1.3-8.7,3.6c-2.3,2.3-3.6,5.4-3.6,8.7c0,3.3,1.3,6.4,3.6,8.7    c0.5,0.5,0.5,1.3,0,1.8C484.1,306.9,483.7,307,483.4,307z"/>
	</g>
	<g>
		<path class="st1" d="M178.3,20.8c0,7.5-6,13.5-13.5,13.5c-7.5,0-13.5-6.1-13.5-13.5s6-13.5,13.5-13.5    C172.3,7.2,178.3,13.3,178.3,20.8z"/>
	</g>
	<g>
		<path class="st2" d="M155.2,31.6c-0.3,0-0.6-0.1-0.9-0.4c-5.7-5.8-5.7-15.1,0-20.9c5.8-5.8,15.1-5.8,20.9,0c0.5,0.5,0.5,1.3,0,1.8    c-0.5,0.5-1.3,0.5-1.8,0c-4.8-4.8-12.6-4.8-17.3,0c-4.8,4.8-4.8,12.6,0,17.3c0.5,0.5,0.5,1.3,0,1.8    C155.9,31.4,155.5,31.6,155.2,31.6z"/>
	</g>
	<g>
		<path class="st0" d="M105.5,471.6c0,7.5-6,13.5-13.5,13.5c-7.5,0-13.5-6.1-13.5-13.5c0-7.5,6-13.5,13.5-13.5    C99.4,458,105.5,464.1,105.5,471.6z"/>
	</g>
	<g>
		<path class="st2" d="M82.4,482.4c-0.3,0-0.6-0.1-0.9-0.4c-5.7-5.7-5.7-15.1,0-20.9c5.8-5.8,15.1-5.8,20.9,0c0.5,0.5,0.5,1.3,0,1.8    c-0.5,0.5-1.3,0.5-1.8,0c-4.8-4.8-12.6-4.8-17.3,0c-4.8,4.8-4.8,12.6,0,17.3c0.5,0.5,0.5,1.3,0,1.8    C83,482.2,82.7,482.4,82.4,482.4z"/>
	</g>
	<g>
		<g>
			<path class="st5" d="M119.3,132.5c-0.7-1.7-1.9-3.1-2.7-4.8c-0.8-1.7-1.2-3.5-1.5-5.4c-0.5-3.7-0.5-7.3,0.6-10.9     c1-3.5,3.1-6.6,5.7-9.1c2.8-2.7,6.4-4.4,9.6-6.4c0.6-0.4,0.2-1.3-0.4-1.3c-8.6-0.4-15.1,8.3-17.4,15.8c-1.2,3.8-1.5,8.1-0.5,12     c0.9,3.4,3,8.6,6.2,10.5C119.1,133,119.3,132.7,119.3,132.5L119.3,132.5z"/>
		</g>
	</g>
	<g>
		<g>
			<path class="st5" d="M170.7,85.6c4.6,1,6.4,5.8,7.4,9.8c0.9,3.5-1.2,7.3-3.6,9.8c-5.4,5.7-13.9,7.3-19.5,12.8     c-0.6,0.6-0.1,1.7,0.8,1.5c5-1.2,9.8-3.9,14.2-6.6c3.2-2,6.3-4.5,8.4-7.7c2.5-3.8,3.9-8.5,1.3-12.6c-1.1-1.8-1.8-3.7-3.3-5.3     c-1.5-1.7-3.4-2.6-5.6-2.7C170.2,84.7,170.1,85.5,170.7,85.6L170.7,85.6z"/>
		</g>
	</g>
	<g>
		<g>
			<path class="st5" d="M312.2,107c-2.7-1.7-5.7-3-7.2-6c-1.3-2.5-1.6-5.7-0.6-8.3c0.8-2.1,2.3-3.6,3.8-5.2c2.1-2.3,4.7-4.2,7.4-5.9     c3.7-2.4,7.7-2.3,12-1.8c0.6,0.1,0.8-0.9,0.2-1.1c-3.8-1.2-8.1-1.5-11.7,0.4c-2.8,1.5-5.3,3.6-7.8,5.5c-2.8,2.2-5.7,4-6.8,7.6     c-1,3.3-0.4,6.9,1.5,9.8c0.9,1.4,2.2,2.8,3.5,3.9c1.7,1.4,3.4,2.2,5.6,2.2C312.4,107.9,312.7,107.3,312.2,107L312.2,107z"/>
		</g>
	</g>
	<g>
		<g>
			<path class="st5" d="M373.1,98.9c0.2,1,0.2,2,0.4,2.9c0.2,0.8,0.6,1.6,0.8,2.4c0.4,1.5,0.9,3,1,4.5c0.1,3.1-0.6,6.2-1.7,9     c-1.1,2.8-4,5.9-6.6,7.3c-3,1.6-6.5,2-9.8,1.1c-4-1.1-6.9-3.8-10-6.4c-1.8-1.5-4.1,0.9-2.9,2.7c-0.1-0.3-0.3-0.6-0.4-1     c0,0.2,0.1,0.3,0.1,0.5c0.2,0.3,0.4,0.7,0.6,1c0.4,0.6,0.9,1.1,1.3,1.6c1,1.2,2,2.2,3.3,3.1c1.6,1.2,3.5,2.1,5.4,2.7     c2.2,0.7,4.4,0.8,6.7,0.5c2-0.3,3.7-1.2,5.4-2.2c3-1.7,5.6-4.7,7.1-7.8c1.5-3.2,2.8-6.2,3.1-9.8c0.2-2.1,0.3-4.4,0-6.4     c-0.1-1.1-0.4-2.1-0.8-3.1c-0.4-1.1-1.4-2-2.2-2.9C373.6,98.3,373,98.5,373.1,98.9L373.1,98.9z"/>
		</g>
	</g>
	<g>
		<g>
			<path class="st5" d="M362,62.5c0.3,0.1,0.6,0.2,0.9,0.4c0.2,0.2,0.4,0.4,0.7,0.5c0.5,0.2,0.9,0.5,1.4,0.8     c0.8,0.4,1.3,1.1,1.7,1.9c0.4,0.8,0.7,2,0.7,2.9c0,0.3-0.3,0.7-0.3,1c0,0.1,0,0.2,0,0.3c-0.1,0.4-0.2,0.8-0.2,1.2     c-0.1,0.6-0.2,1.1-0.3,1.7c-0.1,0.7,0.4,1.5,1.2,1.6c0.8,0.1,1.4-0.4,1.6-1.2c0.2-0.7,0.3-1.4,0.2-2.1c0-0.7,0-1.6-0.4-2.2     c-0.3-0.4-0.3-1.1-0.4-1.6c-0.2-0.5-0.4-1-0.6-1.5c-0.2-0.5-0.4-0.9-0.7-1.3c-0.5-0.7-1-1.4-1.6-2c-0.4-0.3-0.9-0.6-1.3-0.8     c-0.3-0.1-0.5-0.1-0.8-0.1c-0.5,0-0.9,0-1.4,0C361.7,61.9,361.7,62.4,362,62.5L362,62.5z"/>
		</g>
	</g>
	<g>
		<g>
			<path class="st5" d="M121,76.1c0-0.4,0.1-0.7,0.1-1.1c0-0.4-0.1-0.7-0.1-1.1c0-0.8,0.2-1.6,0.4-2.3c0.4-1.7,1.3-3.3,2.4-4.6     c1.2-1.3,2.7-2.4,4.5-2.8c1.2-0.2,2.3-0.2,3.5-0.1c0.5,0.1,1.1,0.1,1.6,0.3c0.7,0.2,1.2,0.6,1.9,0.8c0.2,0.1,0.4-0.2,0.3-0.4     c-0.4-0.9-1.4-1.4-2.2-1.8c-1-0.4-2-0.6-3.1-0.6c-1.9,0-3.7,0.5-5.2,1.5c-2.7,1.7-4.6,4.9-5.2,8c-0.1,0.8-0.2,1.6-0.2,2.3     c0.1,0.8,0.3,1.4,0.9,2C120.6,76.6,121,76.4,121,76.1L121,76.1z"/>
		</g>
	</g>
	<g>
		<g>
			<path class="st5" d="M119.8,258.2c0.5-4.9,1.4-9.8,2.2-14.6c0.6-3.3,1.2-6.7,2.2-9.9c1.9-6.5,5-12.4,8.2-18.3     c5-9.2,10.3-18.2,15.7-27.2c5.6-9.3,10.9-18.7,17.8-27.1c0.2-0.2-0.2-0.6-0.4-0.3c-7.3,7.9-14.4,16.3-20.1,25.5     c-5.8,9.3-10.5,19.3-15.5,29c-3,5.9-6.3,11.7-8.2,18c-1,3.5-1.7,7.1-2.2,10.7c-0.6,4.7-0.4,9.4-0.6,14.1     C118.9,258.6,119.7,258.6,119.8,258.2L119.8,258.2z"/>
		</g>
	</g>
	<g>
		<g>
			<path class="st5" d="M327.9,162.1c6.9,5.1,12.8,11.5,17.1,18.9c1,1.7,1.9,3.3,2.7,5.1c0.9,2,1,4.1,1.5,6.3     c0.5,2.8,1.2,5.5,1.8,8.3c0.5,2.5,0.4,5.2,1.1,7.6c0.4,1.3,2,1.1,2.4,0c0.8-2.3,0.3-4.9-0.1-7.2c-0.6-3.1-1.7-6.2-3.2-9     c-1.2-2.1-2.5-4-3.3-6.3c-0.7-1.9-1.3-3.8-2.2-5.7c-1.6-3.6-3.7-7.1-6.3-10c-3.1-3.6-6.9-6.2-11.2-8.3     C327.9,161.6,327.7,161.9,327.9,162.1L327.9,162.1z"/>
		</g>
	</g>
	<g>
		<g>
			<path class="st5" d="M305.2,346.1c8.2-2.4,14.9-6.3,21.3-11.8c5.2-4.5,10.9-8.9,14.8-14.6c2.6-3.8,4.1-7.6,5-12     c1.1-5.4,3.6-10.5,5.4-15.7c0.1-0.4-0.4-0.6-0.7-0.3c-3.5,4.4-6.1,9-7.5,14.5c-1,4.1-2.5,7.9-4.8,11.5     c-3.5,5.5-7.5,10.8-12.6,14.9c-3.1,2.5-6.7,4.5-10.1,6.5c-3.7,2.2-7.4,4.4-11.3,6.1C304.2,345.5,304.6,346.3,305.2,346.1     L305.2,346.1z"/>
		</g>
	</g>
	<g>
		<g>
			<path class="st5" d="M192.4,361.9c4.2,1,8.5,1.5,12.9,1.5c5,0,10.2-0.1,15.1-1.1c0.3-0.1,0.3-0.5,0-0.5c-4.5-0.1-9,0.6-13.5,0.7     c-4.8,0.1-9.6-0.1-14.3-0.9C192.2,361.5,192.2,361.8,192.4,361.9L192.4,361.9z"/>
		</g>
	</g>
	<g>
		<path class="st2" d="M138.6,87.9c-0.2,0-0.4-0.1-0.6-0.2c-0.6-0.3-0.8-1.1-0.5-1.7c4-7,12.7-9.5,19.8-5.8c0.6,0.3,0.8,1.1,0.5,1.7    s-1.1,0.8-1.7,0.5c-5.9-3.1-13.2-1-16.5,4.8C139.4,87.7,139,87.9,138.6,87.9z"/>
	</g>
	<g>
		<path class="st2" d="M362.8,92.2c-0.3,0-0.7-0.1-0.9-0.4c-5.3-6.1-13.5-9.5-21.5-9c-0.7,0.1-1.3-0.5-1.3-1.2    c0-0.7,0.5-1.3,1.2-1.3c8.8-0.6,17.8,3.2,23.6,9.9c0.4,0.5,0.4,1.3-0.1,1.8C363.4,92.1,363.1,92.2,362.8,92.2z"/>
	</g>
	<g>
		<path class="st2" d="M182.7,271.4c-0.3,0-0.7-0.1-0.9-0.4c-11.6-13.4-14.7-33.3-7.6-49.6c7.5-17,24.3-28,37.8-36.8    c0.6-0.4,1.4-0.2,1.7,0.4c0.4,0.6,0.2,1.3-0.4,1.7c-13.2,8.6-29.7,19.4-36.9,35.7c-6.8,15.4-3.9,34.3,7.1,46.9    c0.5,0.5,0.4,1.3-0.1,1.8C183.2,271.3,182.9,271.4,182.7,271.4z"/>
	</g>
	<g>
		<path class="st2" d="M193.1,143.7c-0.5,0-0.9-0.3-1.1-0.7c-0.3-0.6,0-1.4,0.6-1.7c9.5-4.6,20.4-6.2,30.9-4.8    c0.7,0.1,1.2,0.7,1.1,1.4c-0.1,0.7-0.8,1.1-1.4,1.1c-9.9-1.4-20.4,0.2-29.4,4.5C193.4,143.7,193.2,143.7,193.1,143.7z"/>
	</g>
	<g>
		<path class="st2" d="M355.8,266.5c-0.1,0-0.2,0-0.3,0c-0.7-0.2-1.1-0.8-0.9-1.5c1-4,1.6-8.2,1.8-12.3c0-0.7,0.6-1.3,1.3-1.2    c0.7,0,1.2,0.6,1.2,1.3c-0.2,4.3-0.9,8.6-1.9,12.8C356.8,266.2,356.3,266.5,355.8,266.5z"/>
	</g>
	<g>
		<path class="st2" d="M147.2,337.5c-0.3,0-0.7-0.1-0.9-0.4c-5.7-6.2-10.6-13.1-14.4-20.7c-0.3-0.6-0.1-1.4,0.6-1.7    c0.6-0.3,1.4-0.1,1.7,0.6c3.7,7.3,8.4,14.1,14,20.1c0.5,0.5,0.4,1.3-0.1,1.8C147.8,337.4,147.5,337.5,147.2,337.5z"/>
	</g>
	<g>
		<g>
			<path class="st5" d="M216.3,301.3c2.2-1.3,4.4-2.5,6.1-4.4c1.4-1.5,2.6-3.1,4-4.6c2.1-2.2,4-4.4,5.7-6.9c1.4-2.1,2.6-4.4,3.6-6.7     c1.2-2.9,2.6-5.7,3-8.9c0.1-0.5-0.6-0.7-0.8-0.2c-1.4,2.6-1.8,5.4-2.9,8.2c-1,2.4-2.1,4.8-3.6,7c-1.5,2.3-3.2,4.3-5.1,6.3     c-1.2,1.2-2.4,2.3-3.8,3.3c-2.6,1.9-4.6,4.1-6.7,6.6C215.8,301.1,216,301.5,216.3,301.3L216.3,301.3z"/>
		</g>
	</g>
	<g>
		<g>
			<path class="st5" d="M246.2,192.4c-1.5,4.9-2.3,10-3,15.1c-0.6,3.8-1.2,7.6-1.4,11.4c-0.3,6.5,0.7,13.3,4.8,18.6     c0.5,0.6,1.7,0.2,1.4-0.6c-0.9-3.2-2.3-6.1-3.2-9.3c-0.8-2.7-1.2-5.5-1.3-8.4c-0.3-9.1,2.5-17.7,3.2-26.7     C246.9,192.1,246.3,192,246.2,192.4L246.2,192.4z"/>
		</g>
	</g>
</g>
</svg>
